<svg width="17" height="17" viewBox="0 0 17 17" fill="none" xmlns="http://www.w3.org/2000/svg">
<g clip-path="url(#clip0_8360_20598)">
<path d="M0.140625 8.97998C0.140625 8.84456 0.190104 8.72738 0.289062 8.62842C0.388021 8.52946 0.505208 8.47998 0.640625 8.47998H11.6406C11.776 8.47998 11.8932 8.52946 11.9922 8.62842C12.0911 8.72738 12.1406 8.84456 12.1406 8.97998C12.1406 9.1154 12.0911 9.23258 11.9922 9.33154C11.8932 9.4305 11.776 9.47998 11.6406 9.47998H0.640625C0.505208 9.47998 0.388021 9.4305 0.289062 9.33154C0.190104 9.23258 0.140625 9.1154 0.140625 8.97998ZM6.78125 4.12061C6.88542 4.02686 7.00521 3.97998 7.14062 3.97998C7.27604 3.97998 7.39583 4.02686 7.5 4.12061L12 8.62061C12.0938 8.72477 12.1406 8.84456 12.1406 8.97998C12.1406 9.1154 12.0938 9.23519 12 9.33936L7.5 13.8394C7.39583 13.9331 7.27604 13.98 7.14062 13.98C7.00521 13.98 6.88542 13.9331 6.78125 13.8394C6.6875 13.7352 6.64062 13.6154 6.64062 13.48C6.64062 13.3446 6.6875 13.2248 6.78125 13.1206L10.9375 8.97998L6.78125 4.83936C6.6875 4.73519 6.64062 4.6154 6.64062 4.47998C6.64062 4.34456 6.6875 4.22477 6.78125 4.12061Z" fill="white"/>
</g>
<defs>
<clipPath id="clip0_8360_20598">
<rect width="16" height="16" fill="white" transform="matrix(1 0 0 -1 0.140625 16.98)"/>
</clipPath>
</defs>
</svg>
