<svg width="20" height="20" viewBox="0 0 20 20" fill="none" xmlns="http://www.w3.org/2000/svg">
<path d="M18.0288 0.936777H1.5024C1.29895 0.936777 1.10724 0.975903 0.927265 1.05415C0.747289 1.1324 0.586877 1.24195 0.446026 1.3828C0.305176 1.52365 0.195625 1.68407 0.117375 1.86404C0.0391251 2.04402 0 2.23573 0 2.43918V14.4584C0 14.6619 0.0391251 14.8536 0.117375 15.0336C0.195625 15.2135 0.305176 15.3739 0.446026 15.5148C0.586877 15.6556 0.747289 15.7652 0.927265 15.8434C1.10724 15.9217 1.29895 15.9608 1.5024 15.9608H7.08947L8.4745 18.2848C8.5371 18.3944 8.61535 18.4922 8.70925 18.5783C8.80315 18.6644 8.9127 18.7387 9.0379 18.8013C9.14745 18.8795 9.26482 18.9343 9.39002 18.9656C9.51522 18.9969 9.64042 19.0126 9.76562 19.0126C9.89083 19.0126 10.016 18.9969 10.1412 18.9656C10.2664 18.9343 10.3838 18.8795 10.4934 18.8013C10.6186 18.7387 10.7281 18.6644 10.822 18.5783C10.9159 18.4922 10.9942 18.3944 11.0568 18.2848L12.4418 15.9608H18.0288C18.2323 15.9608 18.424 15.9217 18.604 15.8434C18.784 15.7652 18.9444 15.6556 19.0852 15.5148C19.2261 15.3739 19.3356 15.2135 19.4139 15.0336C19.4921 14.8536 19.5312 14.6619 19.5312 14.4584V2.43918C19.5312 2.23573 19.4921 2.04402 19.4139 1.86404C19.3356 1.68407 19.2261 1.52365 19.0852 1.3828C18.9444 1.24195 18.784 1.1324 18.604 1.05415C18.424 0.975903 18.2323 0.936777 18.0288 0.936777ZM12.7704 10.7024H6.76082C6.66692 10.7024 6.57302 10.6828 6.47912 10.6437C6.38522 10.6046 6.29914 10.5537 6.22089 10.4911C6.15829 10.4129 6.10743 10.3268 6.0683 10.2329C6.02918 10.139 6.00962 10.0451 6.00962 9.9512C6.00962 9.8573 6.02918 9.7634 6.0683 9.6695C6.10743 9.5756 6.15829 9.48952 6.22089 9.41127C6.29914 9.34867 6.38522 9.29781 6.47912 9.25869C6.57302 9.21956 6.66692 9.2 6.76082 9.2H12.7704C12.8643 9.2 12.9582 9.21956 13.0521 9.25869C13.146 9.29781 13.2321 9.34867 13.3104 9.41127C13.373 9.48952 13.4238 9.5756 13.4629 9.6695C13.5021 9.7634 13.5216 9.8573 13.5216 9.9512C13.5216 10.0451 13.5021 10.139 13.4629 10.2329C13.4238 10.3268 13.373 10.4129 13.3104 10.4911C13.2321 10.5537 13.146 10.6046 13.0521 10.6437C12.9582 10.6828 12.8643 10.7024 12.7704 10.7024ZM12.7704 7.69759H6.76082C6.66692 7.69759 6.57302 7.67803 6.47912 7.63891C6.38522 7.59978 6.29914 7.54892 6.22089 7.48632C6.15829 7.40807 6.10743 7.32199 6.0683 7.22809C6.02918 7.13419 6.00962 7.04029 6.00962 6.94639C6.00962 6.85249 6.02918 6.75859 6.0683 6.66469C6.10743 6.57079 6.15829 6.48472 6.22089 6.40647C6.29914 6.34387 6.38522 6.293 6.47912 6.25388C6.57302 6.21475 6.66692 6.19519 6.76082 6.19519H12.7704C12.8643 6.19519 12.9582 6.21475 13.0521 6.25388C13.146 6.293 13.2321 6.34387 13.3104 6.40647C13.373 6.48472 13.4238 6.57079 13.4629 6.66469C13.5021 6.75859 13.5216 6.85249 13.5216 6.94639C13.5216 7.04029 13.5021 7.13419 13.4629 7.22809C13.4238 7.32199 13.373 7.40807 13.3104 7.48632C13.2321 7.54892 13.146 7.59978 13.0521 7.63891C12.9582 7.67803 12.8643 7.69759 12.7704 7.69759Z" fill="#2EBB77"/>
</svg>
