<svg width="31" height="57" viewBox="0 0 31 57" fill="none" xmlns="http://www.w3.org/2000/svg">
<path d="M29.2031 1.8399C28.0365 0.673237 26.6328 0.0899048 24.9922 0.0899048C23.3516 0.0899048 21.9661 0.673237 20.8359 1.8399L15.1484 7.47272C13.7266 7.32689 12.3229 7.4636 10.9375 7.88287C9.55208 8.30214 8.3125 8.96751 7.21875 9.87897L3.82812 12.7227C2.625 13.7071 1.6862 14.9102 1.01172 16.3321C0.33724 17.754 0 19.2488 0 20.8165V50.6212C0 52.1159 0.53776 53.4011 1.61328 54.4766C2.6888 55.5521 3.97396 56.0899 5.46875 56.0899H23.1328C24.6276 56.0899 25.9128 55.5521 26.9883 54.4766C28.0638 53.4011 28.6016 52.1159 28.6016 50.6212V21.0899C28.6016 19.7045 28.3372 18.3829 27.8086 17.1251C27.2799 15.8672 26.5599 14.7462 25.6484 13.7618L29.2031 10.2071C30.3698 9.04042 30.9531 7.63678 30.9531 5.99615C30.9531 4.35553 30.3698 2.97011 29.2031 1.8399ZM25.3203 21.0899V50.6212C25.3203 51.2409 25.1016 51.7605 24.6641 52.1797C24.2266 52.599 23.7161 52.8087 23.1328 52.8087H5.46875C4.88542 52.8087 4.375 52.599 3.9375 52.1797C3.5 51.7605 3.28125 51.2409 3.28125 50.6212V20.8165C3.28125 19.7227 3.50911 18.6928 3.96484 17.7266C4.42057 16.7605 5.06771 15.931 5.90625 15.2383L9.29688 12.3946C10.5729 11.3373 12.0768 10.7813 13.8086 10.7266C15.5404 10.6719 17.0625 11.155 18.375 12.1758L20.7812 13.9805L17.9375 16.8243C15.7135 15.4753 13.4258 15.4571 11.0742 16.7696C8.72266 18.0821 7.5651 20.0508 7.60156 22.6758C7.60156 24.5352 8.26693 26.1303 9.59766 27.461C10.9284 28.7917 12.5417 29.4571 14.4375 29.4571C17.026 29.4936 18.9857 28.336 20.3164 25.9844C21.6471 23.6329 21.6198 21.3633 20.2344 19.1758L23.2969 16.0587C23.9531 16.7514 24.4544 17.5261 24.8008 18.3829C25.1471 19.2396 25.3203 20.142 25.3203 21.0899ZM17.9375 22.6758C17.8281 25.0092 16.6523 26.1758 14.4102 26.1758C12.168 26.1758 10.9922 25.0092 10.8828 22.6758C10.8464 21.5092 11.3203 20.5613 12.3047 19.8321C13.2891 19.1029 14.3464 18.9206 15.4766 19.2852L13.2344 21.5274C12.9427 21.8191 12.7969 22.1928 12.7969 22.6485C12.7969 23.1042 12.9427 23.4962 13.2344 23.8243C13.5625 24.1524 13.9544 24.3165 14.4102 24.3165C14.8659 24.3165 15.2578 24.1524 15.5859 23.8243L17.7734 21.6368C17.8464 21.7826 17.8919 21.9467 17.9102 22.129C17.9284 22.3113 17.9375 22.4935 17.9375 22.6758ZM26.9062 7.85553L23.0781 11.6837L20.3438 9.60553C20.0885 9.38678 19.8242 9.19537 19.5508 9.03131C19.2773 8.86725 18.9948 8.7123 18.7031 8.56647L23.1328 4.13678C23.6432 3.62636 24.263 3.37115 24.9922 3.37115C25.7214 3.37115 26.3594 3.62636 26.9062 4.13678C27.4167 4.6472 27.6719 5.2761 27.6719 6.0235C27.6719 6.77089 27.4167 7.38157 26.9062 7.85553ZM19.9609 39.5743H8.80469C7.71094 39.6472 7.16406 40.2032 7.16406 41.2422C7.16406 42.2813 7.71094 42.8191 8.80469 42.8555H19.9609C21.0547 42.8191 21.6016 42.2813 21.6016 41.2422C21.6016 40.2032 21.0547 39.6472 19.9609 39.5743ZM19.9609 33.0665H8.80469C7.71094 33.1029 7.16406 33.6407 7.16406 34.6797C7.16406 35.7188 7.71094 36.2748 8.80469 36.3477H19.9609C21.0547 36.2748 21.6016 35.7188 21.6016 34.6797C21.6016 33.6407 21.0547 33.1029 19.9609 33.0665ZM19.9609 45.9727H8.80469C7.71094 46.0092 7.16406 46.5561 7.16406 47.6133C7.16406 48.6706 7.71094 49.2175 8.80469 49.254H19.9609C21.0547 49.2175 21.6016 48.6706 21.6016 47.6133C21.6016 46.5561 21.0547 46.0092 19.9609 45.9727Z" fill="#2EBB77"/>
</svg>
