<svg width="18" height="16" viewBox="0 0 18 16" fill="none" xmlns="http://www.w3.org/2000/svg">
<g clip-path="url(#clip0_10313_1061)">
<path d="M17.5308 13.3098C17.521 13.3098 17.3892 13.1536 17.1353 12.8411C16.8814 12.5286 16.6421 12.1477 16.4175 11.6985C16.8179 11.3079 17.1328 10.8684 17.3623 10.3801C17.5918 9.89185 17.7066 9.37427 17.7066 8.82739C17.7066 8.24146 17.5747 7.68481 17.3111 7.15747C17.0474 6.63989 16.6836 6.17603 16.2198 5.76587C15.7559 5.35571 15.2115 5.01392 14.5865 4.74048C13.9517 4.46704 13.273 4.28638 12.5503 4.19849C12.3159 3.77856 12.0083 3.39282 11.6275 3.04126C11.2564 2.6897 10.8267 2.38696 10.3384 2.13306C9.85013 1.87915 9.3179 1.67896 8.74173 1.53247C8.16556 1.39575 7.56009 1.32739 6.92532 1.32739C6.08548 1.32739 5.29446 1.44946 4.55227 1.6936C3.81009 1.93774 3.16311 2.27222 2.61136 2.69702C2.0596 3.12183 1.62747 3.61743 1.31497 4.18384C0.992705 4.76001 0.831572 5.37036 0.831572 6.01489C0.831572 6.56177 0.946318 7.07935 1.17581 7.56763C1.4053 8.05591 1.72024 8.49536 2.12063 8.88599C1.89602 9.33521 1.65677 9.71606 1.40286 10.0286C1.14895 10.3411 1.022 10.4973 1.022 10.4973C0.924345 10.595 0.86331 10.7097 0.838896 10.8416C0.814482 10.9734 0.831572 11.1028 0.890165 11.2297C0.938994 11.3567 1.01956 11.4568 1.13186 11.53C1.24417 11.6033 1.36868 11.6399 1.5054 11.6399C2.28665 11.6399 2.98977 11.5203 3.61477 11.281C4.23977 11.0417 4.76224 10.7854 5.18216 10.512C5.30911 10.5413 5.44095 10.5681 5.57767 10.5925C5.71438 10.6169 5.85599 10.634 6.00247 10.6438C6.22708 11.0637 6.52981 11.4495 6.91067 11.801C7.28177 12.1526 7.71145 12.4553 8.19974 12.7092C8.68802 12.9631 9.22024 13.1633 9.79642 13.3098C10.3726 13.4465 10.9781 13.5149 11.6128 13.5149C11.9156 13.5149 12.2134 13.4978 12.5064 13.4636C12.7993 13.4294 13.0874 13.3831 13.3706 13.3245C13.7906 13.5881 14.3106 13.842 14.9307 14.0862C15.5508 14.3303 16.2515 14.4524 17.0327 14.4524C17.1695 14.4524 17.294 14.4158 17.4063 14.3425C17.5186 14.2693 17.604 14.1692 17.6626 14.0422C17.7115 13.9153 17.7237 13.7859 17.6992 13.6541C17.6748 13.5222 17.6187 13.4075 17.5308 13.3098ZM5.38724 9.58911L4.99173 9.50122L4.66946 9.72095C4.36673 9.90649 3.99808 10.0945 3.56351 10.2849C3.12893 10.4753 2.63821 10.6047 2.09134 10.6731C2.21829 10.5071 2.35989 10.3069 2.51614 10.0725C2.67239 9.83813 2.81888 9.58423 2.9556 9.31079L3.26321 8.69556L2.77981 8.22681C2.54544 8.0022 2.31839 7.7019 2.09866 7.32593C1.87893 6.94995 1.76907 6.51294 1.76907 6.01489C1.76907 5.49731 1.90579 5.00903 2.17923 4.55005C2.4429 4.10083 2.80911 3.70532 3.27786 3.36353C3.74661 3.02173 4.29349 2.75317 4.91849 2.55786C5.54349 2.36255 6.21243 2.26489 6.92532 2.26489C7.63821 2.26489 8.30716 2.36255 8.93216 2.55786C9.55716 2.75317 10.104 3.02173 10.5728 3.36353C11.0415 3.70532 11.4077 4.10083 11.6714 4.55005C11.9449 5.00903 12.0816 5.49731 12.0816 6.01489C12.0816 6.53247 11.9449 7.02075 11.6714 7.47974C11.4077 7.92896 11.0415 8.32446 10.5728 8.66626C10.104 9.00806 9.55716 9.27661 8.93216 9.47192C8.30716 9.66724 7.63821 9.76489 6.92532 9.76489C6.66165 9.76489 6.40286 9.75024 6.14895 9.72095C5.89505 9.69165 5.64114 9.64771 5.38724 9.58911ZM13.8687 12.5334L13.5464 12.3137L13.1509 12.4016C12.897 12.4602 12.6431 12.5042 12.3892 12.5334C12.1353 12.5627 11.8765 12.5774 11.6128 12.5774C11.1343 12.5774 10.6753 12.5334 10.2359 12.4456C9.79642 12.3577 9.38382 12.2307 8.99808 12.0647C8.61233 11.8987 8.26321 11.6985 7.95071 11.4641C7.63821 11.2297 7.36966 10.9758 7.14505 10.7024C7.96536 10.6731 8.73196 10.5315 9.44485 10.2776C10.1577 10.0237 10.7779 9.68677 11.3052 9.26685C11.8325 8.84692 12.2525 8.35864 12.565 7.802C12.8677 7.24536 13.0191 6.64966 13.0191 6.01489C13.0191 5.87817 13.0093 5.74146 12.9898 5.60474C12.9702 5.46802 12.9458 5.33618 12.9165 5.20923C13.4732 5.30688 13.9859 5.4729 14.4546 5.70728C14.9234 5.93188 15.3286 6.20288 15.6704 6.52026C16.0122 6.83765 16.2808 7.19165 16.4761 7.58228C16.6714 7.98267 16.7691 8.39771 16.7691 8.82739C16.7691 9.32544 16.6592 9.76245 16.4395 10.1384C16.2198 10.5144 15.9927 10.8147 15.7583 11.0393L15.2749 11.5081L15.5825 12.1233C15.7193 12.3967 15.8658 12.6506 16.022 12.885C16.1783 13.1194 16.3199 13.3196 16.4468 13.4856C15.8999 13.4172 15.4092 13.2878 14.9746 13.0974C14.5401 12.907 14.1714 12.719 13.8687 12.5334Z" fill="#7E7E7E"/>
</g>
<defs>
<clipPath id="clip0_10313_1061">
<rect width="16.88" height="15" fill="white" transform="matrix(1 0 0 -1 0.828125 15.3899)"/>
</clipPath>
</defs>
</svg>
