<svg width="310" height="67" viewBox="0 0 310 67" fill="none" xmlns="http://www.w3.org/2000/svg">
<g clip-path="url(#clip0_8360_23400)">
<path d="M177.625 16.925H175.875V10.175C175.875 7.59172 174.958 5.38338 173.125 3.55005C171.292 1.71672 169.083 0.800049 166.5 0.800049H143.5C140.917 0.800049 138.708 1.71672 136.875 3.55005C135.042 5.38338 134.125 7.59172 134.125 10.175V16.925H132.375C129.792 16.925 127.583 17.8417 125.75 19.675C123.917 21.5084 123 23.7167 123 26.3V41.3C123 43.8834 123.917 46.0917 125.75 47.925C127.583 49.7584 129.792 50.675 132.375 50.675H134.125V59.175C134.125 60.7167 134.677 62.0396 135.781 63.1438C136.885 64.248 138.208 64.8 139.75 64.8H170.25C171.792 64.8 173.115 64.248 174.219 63.1438C175.323 62.0396 175.875 60.7167 175.875 59.175V50.675H177.625C180.208 50.675 182.417 49.7584 184.25 47.925C186.083 46.0917 187 43.8834 187 41.3V26.3C187 23.7167 186.083 21.5084 184.25 19.675C182.417 17.8417 180.208 16.925 177.625 16.925ZM137.875 10.175C137.875 8.63338 138.427 7.31047 139.531 6.2063C140.635 5.10213 141.958 4.55005 143.5 4.55005H166.5C168.042 4.55005 169.365 5.10213 170.469 6.2063C171.573 7.31047 172.125 8.63338 172.125 10.175V16.925H137.875V10.175ZM172.125 59.175C172.125 59.675 171.938 60.1125 171.562 60.4875C171.188 60.8625 170.75 61.05 170.25 61.05H139.75C139.25 61.05 138.812 60.8625 138.438 60.4875C138.062 60.1125 137.875 59.675 137.875 59.175V40.675H172.125V59.175ZM183.25 41.3C183.25 42.8417 182.698 44.1646 181.594 45.2688C180.49 46.373 179.167 46.925 177.625 46.925H175.875V40.675H177C177.5 40.675 177.938 40.4875 178.312 40.1125C178.688 39.7375 178.875 39.3 178.875 38.8C178.875 38.3 178.688 37.8625 178.312 37.4875C177.938 37.1125 177.5 36.925 177 36.925H133C132.5 36.925 132.062 37.1125 131.688 37.4875C131.312 37.8625 131.125 38.3 131.125 38.8C131.125 39.3 131.312 39.7375 131.688 40.1125C132.062 40.4875 132.5 40.675 133 40.675H134.125V46.925H132.375C130.833 46.925 129.51 46.373 128.406 45.2688C127.302 44.1646 126.75 42.8417 126.75 41.3V26.3C126.75 24.7584 127.302 23.4355 128.406 22.3313C129.51 21.2271 130.833 20.675 132.375 20.675H177.625C179.167 20.675 180.49 21.2271 181.594 22.3313C182.698 23.4355 183.25 24.7584 183.25 26.3V41.3ZM160 44.925H150C149.5 44.925 149.062 45.1125 148.688 45.4875C148.312 45.8625 148.125 46.3 148.125 46.8C148.125 47.3 148.312 47.7375 148.688 48.1125C149.062 48.4875 149.5 48.675 150 48.675H160C160.5 48.675 160.938 48.4875 161.312 48.1125C161.688 47.7375 161.875 47.3 161.875 46.8C161.875 46.3 161.688 45.8625 161.312 45.4875C160.938 45.1125 160.5 44.925 160 44.925ZM160 52.925H150C149.5 52.925 149.062 53.1125 148.688 53.4875C148.312 53.8625 148.125 54.3 148.125 54.8C148.125 55.3 148.312 55.7375 148.688 56.1125C149.062 56.4875 149.5 56.675 150 56.675H160C160.5 56.675 160.938 56.4875 161.312 56.1125C161.688 55.7375 161.875 55.3 161.875 54.8C161.875 54.3 161.688 53.8625 161.312 53.4875C160.938 53.1125 160.5 52.925 160 52.925ZM139 24.925H133C132.5 24.925 132.062 25.1125 131.688 25.4875C131.312 25.8625 131.125 26.3 131.125 26.8C131.125 27.3 131.312 27.7375 131.688 28.1125C132.062 28.4875 132.5 28.675 133 28.675H139C139.5 28.675 139.938 28.4875 140.312 28.1125C140.688 27.7375 140.875 27.3 140.875 26.8C140.875 26.3 140.688 25.8625 140.312 25.4875C139.938 25.1125 139.5 24.925 139 24.925Z" fill="#2EBB77"/>
</g>
<defs>
<clipPath id="clip0_8360_23400">
<rect width="64" height="64" fill="white" transform="matrix(1 0 0 -1 123 64.8)"/>
</clipPath>
</defs>
</svg>
