<svg width="21" height="21" viewBox="0 0 21 21" fill="none" xmlns="http://www.w3.org/2000/svg">
<g clip-path="url(#clip0_8360_23338)">
<path d="M8.69914 1.98428C8.8033 1.90615 8.91723 1.84756 9.04093 1.8085C9.16463 1.76943 9.29158 1.7499 9.42179 1.7499C9.552 1.7499 9.67895 1.76943 9.80265 1.8085C9.92635 1.84756 10.0403 1.90615 10.1444 1.98428C10.2616 2.04938 10.3593 2.13402 10.4374 2.23818C10.5155 2.34235 10.5741 2.45303 10.6132 2.57022L12.3319 6.88662C12.3319 6.89964 12.3319 6.90615 12.3319 6.90615C12.3319 6.90615 12.3319 6.90941 12.3319 6.91592C12.3319 6.92243 12.3385 6.92568 12.3515 6.92568L16.9609 7.21865C17.5598 7.25772 17.9439 7.56045 18.1132 8.12686C18.2825 8.69326 18.1458 9.15876 17.703 9.52334L14.1679 12.4726C14.1679 12.4726 14.1646 12.4758 14.1581 12.4823C14.1516 12.4888 14.1484 12.4921 14.1484 12.4921C14.1484 12.4921 14.1484 12.4953 14.1484 12.5019C14.1484 12.5084 14.1484 12.5116 14.1484 12.5116L15.3007 17.0038C15.4309 17.5507 15.2681 18.0064 14.8124 18.371C14.3567 18.7356 13.8749 18.7551 13.3671 18.4296L9.42179 15.9296L5.74992 18.2538C5.19002 18.6054 4.65942 18.5793 4.15812 18.1757C3.65682 17.772 3.48429 17.2707 3.64054 16.6718L4.69523 12.5116C4.69523 12.5116 4.69523 12.5084 4.69523 12.5019C4.69523 12.4953 4.69523 12.4921 4.69523 12.4921C4.69523 12.4921 4.69197 12.4888 4.68546 12.4823C4.67895 12.4758 4.6757 12.4726 4.6757 12.4726L1.14054 9.52334C0.697834 9.15876 0.561115 8.69326 0.730386 8.12686C0.899656 7.56045 1.28377 7.25772 1.88273 7.21865L6.4921 6.92568C6.50513 6.92568 6.51164 6.92243 6.51164 6.91592C6.51164 6.90941 6.51164 6.90615 6.51164 6.90615C6.51164 6.90615 6.51164 6.89964 6.51164 6.88662L8.23039 2.57022C8.26945 2.45303 8.32804 2.34235 8.40617 2.23818C8.48429 2.13402 8.58195 2.04938 8.69914 1.98428ZM10.1054 14.8749L14.0312 17.3749C14.0442 17.3749 14.0507 17.3749 14.0507 17.3749C14.0507 17.3749 14.0572 17.3749 14.0702 17.3749C14.0702 17.3619 14.0735 17.3554 14.08 17.3554C14.0865 17.3554 14.0898 17.3489 14.0898 17.3358C14.0898 17.3358 14.0898 17.3326 14.0898 17.3261C14.0898 17.3196 14.0898 17.3163 14.0898 17.3163L12.9374 12.8241C12.9114 12.7069 12.9016 12.5865 12.9081 12.4628C12.9146 12.3391 12.9374 12.2187 12.9765 12.1015C13.0025 11.9843 13.0513 11.8736 13.123 11.7694C13.1946 11.6653 13.276 11.5741 13.3671 11.496L16.9023 8.56631C16.9023 8.55329 16.9055 8.54678 16.912 8.54678C16.9185 8.54678 16.9218 8.54678 16.9218 8.54678C16.9218 8.54678 16.9218 8.54027 16.9218 8.52725C16.9218 8.52725 16.9218 8.52399 16.9218 8.51748C16.9218 8.51097 16.9218 8.5012 16.9218 8.48818C16.9218 8.48818 16.9185 8.48493 16.912 8.47842C16.9055 8.47191 16.9023 8.46865 16.9023 8.46865C16.9023 8.46865 16.8958 8.46865 16.8827 8.46865L12.2929 8.17568C12.2929 8.17568 12.2896 8.17568 12.2831 8.17568C12.2766 8.17568 12.2734 8.17568 12.2734 8.17568C12.1562 8.16266 12.039 8.13662 11.9218 8.09756C11.8046 8.0585 11.7004 7.9999 11.6093 7.92178C11.5051 7.84365 11.4172 7.75902 11.3456 7.66787C11.274 7.57673 11.2122 7.47256 11.1601 7.35537L9.44132 3.01943C9.44132 3.00641 9.44132 2.9999 9.44132 2.9999C9.44132 2.9999 9.43807 2.9999 9.43156 2.9999C9.42505 2.9999 9.42179 2.9999 9.42179 2.9999C9.42179 2.9999 9.41854 2.9999 9.41203 2.9999C9.40552 2.9999 9.40226 2.9999 9.40226 2.9999C9.40226 2.9999 9.40226 3.00641 9.40226 3.01943L7.68351 7.35537C7.63143 7.47256 7.56958 7.57673 7.49796 7.66787C7.42635 7.75902 7.33846 7.84365 7.23429 7.92178C7.14315 7.9999 7.03898 8.0585 6.92179 8.09756C6.8046 8.13662 6.68742 8.16266 6.57023 8.17568L1.96085 8.46865C1.94783 8.46865 1.94132 8.46865 1.94132 8.46865C1.94132 8.46865 1.93807 8.47191 1.93156 8.47842C1.92505 8.48493 1.92179 8.48818 1.92179 8.48818C1.92179 8.5012 1.92179 8.51097 1.92179 8.51748C1.92179 8.52399 1.92179 8.52725 1.92179 8.52725C1.92179 8.54027 1.92179 8.54678 1.92179 8.54678C1.92179 8.54678 1.92505 8.54678 1.93156 8.54678C1.93807 8.54678 1.94132 8.55329 1.94132 8.56631L5.47648 11.496C5.56763 11.5741 5.64901 11.6653 5.72062 11.7694C5.79223 11.8736 5.84106 11.9843 5.8671 12.1015C5.90617 12.2187 5.92895 12.3391 5.93546 12.4628C5.94197 12.5865 5.93221 12.7069 5.90617 12.8241L4.85148 16.9843C4.83846 17.0233 4.83846 17.0624 4.85148 17.1015C4.8645 17.1405 4.88403 17.1666 4.91007 17.1796C4.92309 17.1926 4.93611 17.2024 4.94914 17.2089C4.96216 17.2154 4.97518 17.2187 4.9882 17.2187C5.00122 17.2187 5.01424 17.2187 5.02726 17.2187C5.04028 17.2187 5.05981 17.2121 5.08585 17.1991L8.7382 14.8749C8.84236 14.8098 8.95304 14.761 9.07023 14.7284C9.18742 14.6959 9.3046 14.6796 9.42179 14.6796C9.53898 14.6796 9.65617 14.6959 9.77335 14.7284C9.89054 14.761 10.0012 14.8098 10.1054 14.8749Z" fill="black"/>
</g>
<defs>
<clipPath id="clip0_8360_23338">
<rect width="20" height="20" fill="white" transform="matrix(1 0 0 -1 0.660156 20.5)"/>
</clipPath>
</defs>
</svg>
