<svg width="23" height="22" viewBox="0 0 23 22" fill="none" xmlns="http://www.w3.org/2000/svg">
<path d="M20.625 7.44873C21.6406 7.60498 22.0312 8.85498 21.2891 9.59717L17.1875 13.6206L18.1641 19.2847C18.3203 20.3003 17.2266 21.0815 16.3281 20.6128L11.25 17.9175L6.13281 20.6128C5.23438 21.0815 4.14062 20.3003 4.29688 19.2847L5.27344 13.6206L1.17188 9.59717C0.429688 8.85498 0.820312 7.60498 1.83594 7.44873L7.57812 6.62842L10.1172 1.43311C10.5859 0.495605 11.9141 0.534668 12.3438 1.43311L14.9219 6.62842L20.625 7.44873ZM15.1562 12.9565L19.1016 9.12842L13.6719 8.34717L11.25 3.42529L8.78906 8.34717L3.35938 9.12842L7.30469 12.9565L6.36719 18.3472L11.25 15.8081L16.0938 18.3472L15.1562 12.9565Z" fill="#2EBB77"/>
</svg>
