<svg width="7" height="12" viewBox="0 0 7 12" fill="none" xmlns="http://www.w3.org/2000/svg">
<path d="M0.832031 0.390625C0.936198 0.296875 1.05599 0.25 1.19141 0.25C1.32682 0.25 1.44661 0.296875 1.55078 0.390625L6.55078 5.39062C6.64453 5.49479 6.69141 5.61458 6.69141 5.75C6.69141 5.88542 6.64453 6.00521 6.55078 6.10938L1.55078 11.1094C1.44661 11.2031 1.32682 11.25 1.19141 11.25C1.05599 11.25 0.936198 11.2031 0.832031 11.1094C0.738281 11.0052 0.691406 10.8854 0.691406 10.75C0.691406 10.6146 0.738281 10.4948 0.832031 10.3906L5.48828 5.75L0.832031 1.10938C0.738281 1.00521 0.691406 0.885417 0.691406 0.75C0.691406 0.614583 0.738281 0.494792 0.832031 0.390625Z" fill="#2EBB77"/>
</svg>
