<svg width="48" height="48" viewBox="0 0 48 48" fill="none" xmlns="http://www.w3.org/2000/svg">
<rect width="48" height="48" rx="3" fill="black" fill-opacity="0.3"/>
<path d="M20.7832 20.2207C20.9004 20.1152 21.0352 20.0625 21.1875 20.0625C21.3398 20.0625 21.4746 20.1152 21.5918 20.2207L27.2168 25.8457C27.3223 25.9629 27.375 26.0977 27.375 26.25C27.375 26.4023 27.3223 26.5371 27.2168 26.6543C27.0996 26.7598 26.9648 26.8125 26.8125 26.8125C26.6602 26.8125 26.5254 26.7598 26.4082 26.6543L21.1875 21.416L15.9668 26.6543C15.8496 26.7598 15.7148 26.8125 15.5625 26.8125C15.4102 26.8125 15.2754 26.7598 15.1582 26.6543C15.0527 26.5371 15 26.4023 15 26.25C15 26.0977 15.0527 25.9629 15.1582 25.8457L20.7832 20.2207Z" fill="white"/>
</svg>
