<svg width="40" height="41" viewBox="0 0 40 41" fill="none" xmlns="http://www.w3.org/2000/svg">
<rect y="0.799805" width="40" height="40" rx="20" fill="#E5F4ED"/>
<path d="M17.2461 14.1787C17.5195 14.1787 17.7539 14.2764 17.9492 14.4717C18.1445 14.667 18.2422 14.9014 18.2422 15.1748V26.4248C18.2422 26.6982 18.1445 26.9326 17.9492 27.1279C17.7539 27.3232 17.5195 27.4209 17.2461 27.4209C16.9727 27.4209 16.7383 27.3232 16.543 27.1279C16.3477 26.9326 16.25 26.6982 16.25 26.4248V15.1748C16.25 14.9014 16.3477 14.667 16.543 14.4717C16.7383 14.2764 16.9727 14.1787 17.2461 14.1787ZM10 15.1748C10 14.9014 10.0977 14.667 10.293 14.4717C10.4883 14.2764 10.7227 14.1787 10.9961 14.1787H23.4961C23.7695 14.1787 24.0039 14.2764 24.1992 14.4717C24.3945 14.667 24.4922 14.9014 24.4922 15.1748V17.6748C24.4922 17.9482 24.3945 18.1826 24.1992 18.3779C24.0039 18.5732 23.7695 18.6709 23.4961 18.6709C23.2227 18.6709 22.9883 18.5732 22.793 18.3779C22.5977 18.1826 22.5 17.9482 22.5 17.6748V16.1709H11.9922V17.6748C11.9922 17.9482 11.8945 18.1826 11.6992 18.3779C11.5039 18.5732 11.2695 18.6709 10.9961 18.6709C10.7227 18.6709 10.4883 18.5732 10.293 18.3779C10.0977 18.1826 10 17.9482 10 17.6748V15.1748ZM13.75 26.4248C13.75 26.1514 13.8477 25.917 14.043 25.7217C14.2383 25.5264 14.4727 25.4287 14.7461 25.4287H19.7461C20.0195 25.4287 20.2539 25.5264 20.4492 25.7217C20.6445 25.917 20.7422 26.1514 20.7422 26.4248C20.7422 26.6982 20.6445 26.9326 20.4492 27.1279C20.2539 27.3232 20.0195 27.4209 19.7461 27.4209H14.7461C14.4727 27.4209 14.2383 27.3232 14.043 27.1279C13.8477 26.9326 13.75 26.6982 13.75 26.4248Z" fill="#2EBB77"/>
</svg>
