<svg width="40" height="41" viewBox="0 0 40 41" fill="none" xmlns="http://www.w3.org/2000/svg">
<rect y="0.109863" width="40" height="40" rx="20" fill="#FDEAE4"/>
<g clip-path="url(#clip0_8360_23784)">
<path d="M18.4375 20.3638C18.5938 20.1034 18.8086 19.895 19.082 19.7388C19.3555 19.5825 19.6484 19.5044 19.9609 19.5044C20.0651 19.5044 20.166 19.5142 20.2637 19.5337C20.3613 19.5532 20.4557 19.5825 20.5469 19.6216V15.3833C20.5469 15.2271 20.4883 15.0903 20.3711 14.9731C20.2539 14.856 20.1172 14.7974 19.9609 14.7974H10.5859C10.4297 14.7974 10.293 14.856 10.1758 14.9731C10.0586 15.0903 10 15.2271 10 15.3833V24.7583C10 24.9146 10.0586 25.0513 10.1758 25.1685C10.293 25.2856 10.4297 25.3442 10.5859 25.3442H15.5859L18.4375 20.3638ZM22.3047 10.1099C21.7318 10.1099 21.1849 10.1945 20.6641 10.3638C20.1432 10.5461 19.668 10.7935 19.2383 11.106C18.8086 11.4185 18.431 11.7896 18.1055 12.2192C17.793 12.6489 17.5456 13.1177 17.3633 13.6255H19.9609C20.4427 13.6255 20.8561 13.798 21.2012 14.1431C21.5462 14.4881 21.7188 14.9015 21.7188 15.3833V20.6177C21.8099 20.6307 21.9043 20.6405 22.002 20.647C22.0996 20.6535 22.2005 20.6567 22.3047 20.6567C23.0339 20.6567 23.7174 20.52 24.3555 20.2466C24.9935 19.9601 25.5534 19.5793 26.0352 19.104C26.5169 18.6287 26.8945 18.0721 27.168 17.4341C27.4414 16.7961 27.5781 16.1125 27.5781 15.3833C27.5781 14.6541 27.4414 13.9705 27.168 13.3325C26.8945 12.6945 26.5169 12.1379 26.0352 11.6626C25.5534 11.1873 24.9935 10.8065 24.3555 10.52C23.7174 10.2466 23.0339 10.1099 22.3047 10.1099ZM24.6484 30.1099H15.2734C15.1693 30.1099 15.0716 30.0838 14.9805 30.0317C14.8893 29.9797 14.8177 29.908 14.7656 29.8169C14.7135 29.7257 14.6875 29.6281 14.6875 29.5239C14.6875 29.4198 14.7135 29.3221 14.7656 29.231L19.4531 20.9497C19.5573 20.7674 19.7266 20.6763 19.9609 20.6763C20.1953 20.6763 20.3646 20.7674 20.4688 20.9497L25.1562 29.231C25.2083 29.3221 25.2344 29.4198 25.2344 29.5239C25.2344 29.6281 25.2083 29.7257 25.1562 29.8169C25.1042 29.908 25.0326 29.9797 24.9414 30.0317C24.8503 30.0838 24.7526 30.1099 24.6484 30.1099Z" fill="#FCA68D"/>
</g>
<defs>
<clipPath id="clip0_8360_23784">
<rect width="20" height="20" fill="white" transform="matrix(1 0 0 -1 10 30.1099)"/>
</clipPath>
</defs>
</svg>
