<svg width="41" height="41" viewBox="0 0 41 41" fill="none" xmlns="http://www.w3.org/2000/svg">
<rect x="0.25" y="0.109863" width="40" height="40" rx="20" fill="#2EBB77" fill-opacity="0.15"/>
<g clip-path="url(#clip0_8360_23799)">
<path d="M22 17.9224C22 18.0526 21.9772 18.173 21.9316 18.2837C21.8861 18.3944 21.8177 18.4953 21.7266 18.5864C21.6354 18.6776 21.5345 18.7459 21.4238 18.7915C21.3132 18.8371 21.1927 18.8599 21.0625 18.8599C20.9323 18.8599 20.8118 18.8371 20.7012 18.7915C20.5905 18.7459 20.4896 18.6776 20.3984 18.5864C20.3073 18.4953 20.2389 18.3944 20.1934 18.2837C20.1478 18.173 20.125 18.0526 20.125 17.9224C20.125 17.7922 20.1478 17.6717 20.1934 17.561C20.2389 17.4504 20.3073 17.3494 20.3984 17.2583C20.4896 17.1672 20.5905 17.0988 20.7012 17.0532C20.8118 17.0076 20.9323 16.9849 21.0625 16.9849C21.1927 16.9849 21.3132 17.0076 21.4238 17.0532C21.5345 17.0988 21.6354 17.1672 21.7266 17.2583C21.8177 17.3494 21.8861 17.4504 21.9316 17.561C21.9772 17.6717 22 17.7922 22 17.9224ZM27 14.4849V25.7349C27 25.9041 26.9674 26.0636 26.9023 26.2134C26.8372 26.3631 26.7461 26.4966 26.6289 26.6138C26.5117 26.731 26.3783 26.8221 26.2285 26.8872C26.0788 26.9523 25.9193 26.9849 25.75 26.9849H12C11.8307 26.9849 11.6712 26.9523 11.5215 26.8872C11.3717 26.8221 11.2383 26.731 11.1211 26.6138C11.0039 26.4966 10.9128 26.3631 10.8477 26.2134C10.7826 26.0636 10.75 25.9041 10.75 25.7349V14.4849C10.75 14.3156 10.7826 14.1561 10.8477 14.0063C10.9128 13.8566 11.0039 13.7231 11.1211 13.606C11.2383 13.4888 11.3717 13.3976 11.5215 13.3325C11.6712 13.2674 11.8307 13.2349 12 13.2349H25.75C25.9193 13.2349 26.0788 13.2674 26.2285 13.3325C26.3783 13.3976 26.5117 13.4888 26.6289 13.606C26.7461 13.7231 26.8372 13.8566 26.9023 14.0063C26.9674 14.1561 27 14.3156 27 14.4849ZM25.75 22.981V14.4849H12V21.731L14.8711 18.8599C14.9883 18.7427 15.1217 18.6515 15.2715 18.5864C15.4212 18.5213 15.5807 18.4888 15.75 18.4888C15.9193 18.4888 16.0788 18.5213 16.2285 18.5864C16.3783 18.6515 16.5117 18.7427 16.6289 18.8599L20.125 22.356L21.7461 20.7349C21.8633 20.6177 21.9967 20.5265 22.1465 20.4614C22.2962 20.3963 22.4557 20.3638 22.625 20.3638C22.7943 20.3638 22.9538 20.3963 23.1035 20.4614C23.2533 20.5265 23.3867 20.6177 23.5039 20.7349L25.75 22.981Z" fill="#2EBB77"/>
</g>
<defs>
<clipPath id="clip0_8360_23799">
<rect width="20" height="20" fill="white" transform="matrix(1 0 0 -1 10.75 30.1099)"/>
</clipPath>
</defs>
</svg>
