<svg width="17" height="22" viewBox="0 0 17 22" fill="none" xmlns="http://www.w3.org/2000/svg">
<path d="M12.6022 3.77456C12.0231 3.10161 11.4088 2.46387 10.7594 1.86135C10.1099 1.25882 9.4252 0.699331 8.7053 0.18288C8.6427 0.135929 8.57619 0.100718 8.50576 0.0772419C8.43534 0.0537663 8.361 0.0420303 8.28275 0.0420303C8.2045 0.0420303 8.13016 0.0537663 8.05974 0.0772419C7.98931 0.100718 7.9228 0.135929 7.8602 0.18288C7.1403 0.699331 6.45561 1.25882 5.80613 1.86135C5.15666 2.46387 4.54239 3.10161 3.96334 3.77456C3.32169 4.51012 2.75046 5.26132 2.24966 6.02817C1.76451 6.77937 1.35761 7.53449 1.02896 8.29351C0.700308 9.05254 0.449907 9.81548 0.277757 10.5823C0.105606 11.3335 0.0195312 12.0769 0.0195312 12.8125C0.0195312 13.908 0.230807 14.9604 0.653358 15.9699C1.07591 16.9793 1.67061 17.8753 2.43746 18.6578C3.21996 19.4246 4.11593 20.0193 5.12536 20.4419C6.13478 20.8644 7.18725 21.0757 8.28275 21.0757C9.37825 21.0757 10.4307 20.8644 11.4401 20.4419C12.4496 20.0193 13.3455 19.4246 14.128 18.6578C14.8949 17.8753 15.4896 16.9793 15.9121 15.9699C16.3347 14.9604 16.546 13.908 16.546 12.8125C16.546 12.0769 16.4599 11.3335 16.2877 10.5823C16.1156 9.81548 15.8652 9.05254 15.5365 8.29351C15.2079 7.53449 14.801 6.77937 14.3158 6.02817C13.815 5.26132 13.2438 4.51012 12.6022 3.77456ZM1.52193 12.8125C1.52193 11.4666 1.80364 10.1911 2.36704 8.98603C2.91479 7.78097 3.56427 6.6933 4.31547 5.72299C5.06667 4.75269 5.81787 3.92324 6.56907 3.23464C7.32027 2.54604 7.8915 2.04523 8.28275 1.73223V19.5733C7.3907 19.5733 6.52995 19.4011 5.7005 19.0568C4.87104 18.7125 4.13549 18.2274 3.49384 17.6014C2.86784 16.9597 2.38269 16.2242 2.03839 15.3947C1.69409 14.5653 1.52193 13.7045 1.52193 12.8125Z" fill="#2EBB77"/>
</svg>
