<svg width="10" height="10" viewBox="0 0 10 10" fill="none" xmlns="http://www.w3.org/2000/svg">
<path d="M0.875 1.06055C0.953125 0.990234 1.04297 0.955078 1.14453 0.955078C1.24609 0.955078 1.33594 0.990234 1.41406 1.06055L5.16406 4.81055C5.23438 4.88867 5.26953 4.97852 5.26953 5.08008C5.26953 5.18164 5.23438 5.27148 5.16406 5.34961L1.41406 9.09961C1.33594 9.16992 1.24609 9.20508 1.14453 9.20508C1.04297 9.20508 0.953125 9.16992 0.875 9.09961C0.804688 9.02148 0.769531 8.93164 0.769531 8.83008C0.769531 8.72852 0.804688 8.63867 0.875 8.56055L4.36719 5.08008L0.875 1.59961C0.804688 1.52148 0.769531 1.43164 0.769531 1.33008C0.769531 1.22852 0.804688 1.13867 0.875 1.06055ZM4.625 1.06055C4.70312 0.990234 4.79297 0.955078 4.89453 0.955078C4.99609 0.955078 5.08594 0.990234 5.16406 1.06055L8.91406 4.81055C8.98438 4.88867 9.01953 4.97852 9.01953 5.08008C9.01953 5.18164 8.98438 5.27148 8.91406 5.34961L5.16406 9.09961C5.08594 9.16992 4.99609 9.20508 4.89453 9.20508C4.79297 9.20508 4.70312 9.16992 4.625 9.09961C4.55469 9.02148 4.51953 8.93164 4.51953 8.83008C4.51953 8.72852 4.55469 8.63867 4.625 8.56055L8.11719 5.08008L4.625 1.59961C4.55469 1.52148 4.51953 1.43164 4.51953 1.33008C4.51953 1.22852 4.55469 1.13867 4.625 1.06055Z" fill="black"/>
</svg>
