<svg width="20" height="20" viewBox="0 0 20 20" fill="none" xmlns="http://www.w3.org/2000/svg">
<path d="M9.81641 0.184326C8.8461 0.184326 7.89928 0.325176 6.97592 0.606876C6.05257 0.888578 5.19182 1.29548 4.39367 1.82758C3.59552 2.35968 2.88735 3.00133 2.26917 3.75253C1.651 4.50374 1.16193 5.32536 0.801983 6.21742C0.426382 7.10947 0.191632 8.03673 0.0977314 8.99921C0.00383113 9.96169 0.0507812 10.9124 0.238582 11.8514C0.426382 12.8061 0.747208 13.7099 1.20106 14.5628C1.65491 15.4157 2.22614 16.1787 2.91474 16.8516C3.58769 17.5402 4.35063 18.1114 5.20356 18.5653C6.05648 19.0191 6.96027 19.34 7.91493 19.5278C8.85393 19.7156 9.80467 19.7625 10.7671 19.6686C11.7296 19.5747 12.6569 19.34 13.5489 18.9644C14.441 18.6044 15.2626 18.1154 16.0138 17.4972C16.765 16.879 17.4067 16.1708 17.9388 15.3727C18.4709 14.5745 18.8778 13.7138 19.1595 12.7904C19.4412 11.8671 19.582 10.9203 19.582 9.94995C19.582 9.3083 19.5194 8.66665 19.3942 8.025C19.269 7.39899 19.0851 6.79256 18.8426 6.20568C18.6 5.6188 18.2987 5.05931 17.9388 4.52721C17.5788 3.99511 17.1719 3.50213 16.7181 3.04828C16.2642 2.59443 15.7712 2.18753 15.2391 1.82758C14.707 1.46763 14.1476 1.16637 13.5607 0.92379C12.9738 0.681215 12.3674 0.497328 11.7414 0.372126C11.0997 0.246925 10.4581 0.184326 9.81641 0.184326ZM9.81641 15.9596C9.70686 15.9596 9.59731 15.9439 9.48776 15.9126C9.37821 15.8813 9.27648 15.8344 9.18258 15.7718C9.08868 15.7092 9.00652 15.6348 8.93609 15.5488C8.86567 15.4627 8.8148 15.3649 8.7835 15.2553C8.73655 15.1614 8.70917 15.0597 8.70134 14.9501C8.69352 14.8406 8.69743 14.731 8.71308 14.6215C8.72873 14.5119 8.76394 14.4063 8.81872 14.3046C8.87349 14.2028 8.94 14.1129 9.01825 14.0346C9.0965 13.9564 9.18649 13.8898 9.28822 13.8351C9.38994 13.7803 9.49558 13.7451 9.60513 13.7294C9.71468 13.7138 9.82423 13.7099 9.93378 13.7177C10.0433 13.7255 10.1451 13.7529 10.239 13.7999C10.3485 13.8312 10.4463 13.882 10.5324 13.9524C10.6185 14.0229 10.6928 14.105 10.7554 14.1989C10.818 14.2928 10.865 14.3946 10.8963 14.5041C10.9276 14.6137 10.9432 14.7232 10.9432 14.8328C10.9432 14.9893 10.9158 15.134 10.861 15.2671C10.8063 15.4001 10.7241 15.5214 10.6146 15.6309C10.505 15.7405 10.3837 15.8226 10.2507 15.8774C10.1177 15.9322 9.97291 15.9596 9.81641 15.9596ZM10.5676 11.3585V11.4524C10.5676 11.5463 10.548 11.6402 10.5089 11.7341C10.4698 11.828 10.4189 11.914 10.3563 11.9923C10.2781 12.0549 10.192 12.1057 10.0981 12.1449C10.0042 12.184 9.91031 12.2036 9.81641 12.2036C9.72251 12.2036 9.62861 12.184 9.53471 12.1449C9.44081 12.1057 9.35473 12.0549 9.27648 11.9923C9.21388 11.914 9.16302 11.828 9.12389 11.7341C9.08477 11.6402 9.0652 11.5463 9.0652 11.4524V10.7012C9.0652 10.6073 9.08477 10.5134 9.12389 10.4195C9.16302 10.3256 9.21388 10.2395 9.27648 10.1612C9.35473 10.0986 9.44081 10.0478 9.53471 10.0086C9.62861 9.96951 9.72251 9.94995 9.81641 9.94995C10.0042 9.94995 10.1881 9.92256 10.3681 9.86779C10.548 9.81301 10.7085 9.73868 10.8493 9.64478C11.0058 9.53522 11.1427 9.41002 11.2601 9.26917C11.3775 9.12832 11.4753 8.97182 11.5536 8.79967C11.6162 8.62752 11.6592 8.44755 11.6827 8.25975C11.7061 8.07195 11.6944 7.88415 11.6475 7.69635C11.6162 7.52419 11.5575 7.35596 11.4714 7.19163C11.3853 7.02731 11.2797 6.87472 11.1545 6.73387C11.0136 6.60867 10.861 6.50303 10.6967 6.41695C10.5324 6.33088 10.3642 6.27219 10.192 6.24089C10.0042 6.19394 9.81641 6.1822 9.62861 6.20568C9.44081 6.22915 9.26083 6.27219 9.08868 6.33479C8.91653 6.41304 8.76003 6.51085 8.61918 6.62823C8.47833 6.74561 8.35313 6.88254 8.24358 7.03904C8.14968 7.17989 8.07534 7.34031 8.02056 7.52028C7.96579 7.70026 7.9384 7.88415 7.9384 8.07195C7.9384 8.16585 7.91884 8.25975 7.87971 8.35365C7.84059 8.44755 7.78973 8.53362 7.72713 8.61187C7.64888 8.67447 7.5628 8.72534 7.4689 8.76446C7.375 8.80359 7.2811 8.82315 7.1872 8.82315C7.0933 8.82315 6.9994 8.80359 6.9055 8.76446C6.8116 8.72534 6.72552 8.67447 6.64727 8.61187C6.58467 8.53362 6.53381 8.44755 6.49469 8.35365C6.45556 8.25975 6.436 8.16585 6.436 8.07195C6.436 7.75895 6.47904 7.44986 6.56511 7.14468C6.65119 6.83951 6.7803 6.54607 6.95245 6.26437C7.1246 5.99832 7.32805 5.75965 7.5628 5.54838C7.79755 5.3371 8.0636 5.16104 8.36095 5.02019C8.64265 4.87934 8.94 4.78544 9.25301 4.73849C9.56601 4.69154 9.87901 4.68371 10.192 4.71501C10.505 4.74631 10.8102 4.82456 11.1075 4.94976C11.4049 5.07496 11.6788 5.23146 11.9292 5.41926C12.1796 5.62271 12.3948 5.85355 12.5747 6.11178C12.7547 6.37 12.8995 6.65562 13.009 6.96862C13.1186 7.26597 13.1812 7.57115 13.1968 7.88415C13.2125 8.19715 13.1812 8.51015 13.1029 8.82315C13.0403 9.13615 12.9308 9.4335 12.7743 9.7152C12.6178 9.9969 12.43 10.2473 12.2109 10.4664C11.9761 10.6855 11.7218 10.8733 11.4479 11.0298C11.174 11.1863 10.8806 11.2959 10.5676 11.3585Z" fill="#2EBB77"/>
</svg>
