<svg width="33" height="33" viewBox="0 0 33 33" fill="none" xmlns="http://www.w3.org/2000/svg">
<rect x="0.5" y="0.419922" width="32" height="32" rx="16" fill="#E2F5F2"/>
<g clip-path="url(#clip0_8360_23712)">
<path d="M23.2188 8.70117C23.4062 8.9095 23.5 9.14909 23.5 9.41992C23.5 9.69075 23.4062 9.93034 23.2188 10.1387L9.21875 24.1387C9.01042 24.3262 8.77083 24.4199 8.5 24.4199C8.22917 24.4199 7.98958 24.3262 7.78125 24.1387L0.78125 17.1387C0.59375 16.9303 0.5 16.6908 0.5 16.4199C0.5 16.1491 0.59375 15.9095 0.78125 15.7012C0.989583 15.5137 1.22917 15.4199 1.5 15.4199C1.77083 15.4199 2.01042 15.5137 2.21875 15.7012L8.5 22.0137L21.7812 8.70117C21.9896 8.51367 22.2292 8.41992 22.5 8.41992C22.7708 8.41992 23.0104 8.51367 23.2188 8.70117Z" fill="#11B196"/>
</g>
<defs>
<clipPath id="clip0_8360_23712">
<rect width="32" height="32" fill="white" transform="matrix(1 0 0 -1 0.5 32.4199)"/>
</clipPath>
</defs>
</svg>
