<svg width="49" height="49" viewBox="0 0 49 49" fill="none" xmlns="http://www.w3.org/2000/svg">
<rect x="1.78125" y="1.89014" width="46" height="46" rx="23" stroke="#EEEEEE" stroke-width="2"/>
<path d="M20.5258 31.8901H17.2562V21.3784H20.5258V31.8901ZM18.8734 19.9722C17.8539 19.9722 17.0102 19.0933 17.0102 18.0386C17.0102 17.019 17.8539 16.1753 18.8734 16.1753C19.9281 16.1753 20.7719 17.019 20.7719 18.0386C20.7719 19.0933 19.9281 19.9722 18.8734 19.9722ZM32.725 31.8901H29.4906V26.7925C29.4906 25.562 29.4555 24.0151 27.768 24.0151C26.0805 24.0151 25.8344 25.3159 25.8344 26.687V31.8901H22.5648V21.3784H25.6937V22.8198H25.7289C26.1859 22.0112 27.2406 21.1323 28.8227 21.1323C32.1273 21.1323 32.7602 23.312 32.7602 26.1245V31.8901H32.725Z" fill="black"/>
</svg>
