<svg width="60" height="71" viewBox="0 0 60 71" fill="none" xmlns="http://www.w3.org/2000/svg">
<g clip-path="url(#clip0_8360_23743)">
<mask id="mask0_8360_23743" style="mask-type:luminance" maskUnits="userSpaceOnUse" x="0" y="5" width="60" height="61">
<path d="M60 5.18994H0V65.1899H60V5.18994Z" fill="white"/>
</mask>
<g mask="url(#mask0_8360_23743)">
<path d="M30.0001 18.3736C33.9802 18.3736 37.3543 15.3977 37.8489 11.4516C37.8803 11.2014 37.8026 10.9498 37.6358 10.7607C37.4689 10.5717 37.2289 10.4634 36.9768 10.4634H23.0235C22.7714 10.4634 22.5313 10.5717 22.3644 10.7607C22.1976 10.9497 22.12 11.2014 22.1514 11.4516C22.6459 15.3977 26.0201 18.3736 30.0001 18.3736ZM35.8974 12.2212C35.134 14.7851 32.7534 16.6157 30.0001 16.6157C27.2468 16.6157 24.8663 14.7851 24.1029 12.2212H35.8974Z" fill="#2EBB77"/>
<path d="M59.4574 15.5833L39.2554 7.21541C38.8407 7.04338 38.3865 6.94775 37.9101 6.94775H22.0899C21.6135 6.94775 21.1593 7.04338 20.7447 7.21577L0.542578 15.5833C0.214101 15.7193 0 16.0398 0 16.3953V30.5201C0 31.0055 0.393516 31.3989 0.878906 31.3989H11.5431L11.543 62.5532C11.543 62.7863 11.6355 63.0098 11.8005 63.1748C11.9652 63.3395 12.1888 63.4321 12.4219 63.4321H47.5779C48.0633 63.4321 48.4568 63.0388 48.4568 62.5532V52.8852H52.8513C53.3367 52.8852 53.7303 52.4919 53.7303 52.0063L53.7304 35.7935C53.7304 35.5604 53.6379 35.3369 53.473 35.1719L49.7001 31.3989H59.1211C59.6065 31.3989 60 31.0055 60 30.5201V16.3953C60 16.0398 59.7859 15.7193 59.4574 15.5833ZM37.9101 8.70557C38.8794 8.70557 39.668 9.49412 39.668 10.4634C39.668 15.7943 35.331 20.1313 30 20.1313C24.669 20.1313 20.332 15.7943 20.332 10.4634C20.332 9.49412 21.1206 8.70557 22.0899 8.70557H37.9101ZM51.9724 51.1275H43.1834L43.1836 36.1576L47.5781 31.763L51.9727 36.1576L51.9724 51.1275ZM58.2422 29.6411H48.4569L48.4571 15.511C48.4571 15.0256 48.0636 14.6321 47.5782 14.6321C47.0929 14.6321 46.6994 15.0256 46.6994 15.511L46.6991 30.156L41.6832 35.1719C41.5184 35.3368 41.4258 35.5602 41.4258 35.7935L41.4255 52.0063C41.4255 52.2395 41.5181 52.4629 41.683 52.6279C41.8478 52.7927 42.0714 52.8852 42.3045 52.8852H46.6989V61.6743H13.3008L13.3009 15.511C13.3009 15.0255 12.9074 14.6321 12.422 14.6321C11.9366 14.6321 11.5431 15.0255 11.5431 15.511V29.6411H1.75781V16.9825L18.6051 10.004C18.5854 10.1545 18.5742 10.3075 18.5742 10.4633C18.5742 16.7635 23.6997 21.8891 30 21.8891C36.3003 21.8891 41.4258 16.7635 41.4258 10.4633C41.4258 10.3075 41.4146 10.1545 41.3949 10.004L58.2422 16.9826V29.6411Z" fill="#2EBB77"/>
</g>
</g>
<defs>
<clipPath id="clip0_8360_23743">
<rect width="60" height="70" fill="white" transform="translate(0 0.189941)"/>
</clipPath>
</defs>
</svg>
