<svg width="11" height="7" viewBox="0 0 11 7" fill="none" xmlns="http://www.w3.org/2000/svg">
<path d="M5.14062 0.970703C5.24479 0.876953 5.36458 0.830078 5.5 0.830078C5.63542 0.830078 5.75521 0.876953 5.85938 0.970703L10.8594 5.9707C10.9531 6.07487 11 6.19466 11 6.33008C11 6.46549 10.9531 6.58529 10.8594 6.68945C10.7552 6.7832 10.6354 6.83008 10.5 6.83008C10.3646 6.83008 10.2448 6.7832 10.1406 6.68945L5.5 2.0332L0.859375 6.68945C0.755208 6.7832 0.635417 6.83008 0.5 6.83008C0.364583 6.83008 0.244792 6.7832 0.140625 6.68945C0.046875 6.58529 0 6.46549 0 6.33008C0 6.19466 0.046875 6.07487 0.140625 5.9707L5.14062 0.970703Z" fill="white"/>
</svg>
