<svg width="11" height="7" viewBox="0 0 11 7" fill="none" xmlns="http://www.w3.org/2000/svg">
<path d="M5.14062 0.640625C5.24479 0.546875 5.36458 0.5 5.5 0.5C5.63542 0.5 5.75521 0.546875 5.85938 0.640625L10.8594 5.64062C10.9531 5.74479 11 5.86458 11 6C11 6.13542 10.9531 6.25521 10.8594 6.35938C10.7552 6.45312 10.6354 6.5 10.5 6.5C10.3646 6.5 10.2448 6.45312 10.1406 6.35938L5.5 1.70312L0.859375 6.35938C0.755208 6.45312 0.635417 6.5 0.5 6.5C0.364583 6.5 0.244792 6.45312 0.140625 6.35938C0.046875 6.25521 0 6.13542 0 6C0 5.86458 0.046875 5.74479 0.140625 5.64062L5.14062 0.640625Z" fill="white"/>
</svg>
