<svg width="21" height="37" viewBox="0 0 21 37" fill="none" xmlns="http://www.w3.org/2000/svg">
<g clip-path="url(#clip0_8360_23335)">
<path d="M8.85917 11.625C8.26021 11.625 7.6938 11.7421 7.15995 11.9765C6.6261 12.1979 6.1606 12.5071 5.76347 12.9043C5.36633 13.3014 5.05709 13.7669 4.83573 14.3007C4.60136 14.8346 4.48417 15.401 4.48417 16C4.48417 16.5989 4.60136 17.1653 4.83573 17.6992C5.05709 18.233 5.36633 18.6985 5.76347 19.0957C6.1606 19.4928 6.6261 19.802 7.15995 20.0234C7.6938 20.2578 8.26021 20.375 8.85917 20.375C9.45813 20.375 10.0245 20.2578 10.5584 20.0234C11.0922 19.802 11.5577 19.4928 11.9549 19.0957C12.352 18.6985 12.6613 18.233 12.8826 17.6992C13.117 17.1653 13.2342 16.5989 13.2342 16C13.2342 15.401 13.117 14.8346 12.8826 14.3007C12.6613 13.7669 12.352 13.3014 11.9549 12.9043C11.5577 12.5071 11.0922 12.1979 10.5584 11.9765C10.0245 11.7421 9.45813 11.625 8.85917 11.625ZM3.23417 16C3.23417 15.2187 3.38391 14.4895 3.68339 13.8125C3.96985 13.1224 4.36698 12.5234 4.87479 12.0156C5.38261 11.5078 5.98156 11.1106 6.67167 10.8242C7.34875 10.5247 8.07792 10.375 8.85917 10.375C9.64042 10.375 10.3696 10.5247 11.0467 10.8242C11.7368 11.1106 12.3357 11.5078 12.8435 12.0156C13.3514 12.5234 13.7485 13.1224 14.035 13.8125C14.3344 14.4895 14.4842 15.2187 14.4842 16C14.4842 16.7812 14.3344 17.5104 14.035 18.1875C13.7485 18.8776 13.3514 19.4765 12.8435 19.9843C12.3357 20.4921 11.7368 20.8893 11.0467 21.1757C10.3696 21.4752 9.64042 21.625 8.85917 21.625C8.07792 21.625 7.34875 21.4752 6.67167 21.1757C5.98156 20.8893 5.38261 20.4921 4.87479 19.9843C4.36698 19.4765 3.96985 18.8776 3.68339 18.1875C3.38391 17.5104 3.23417 16.7812 3.23417 16ZM8.85917 21.625C8.14302 21.625 7.4399 21.7161 6.74979 21.8984C6.05969 22.0807 5.40865 22.3541 4.79667 22.7187C4.18469 23.0703 3.62479 23.5 3.11698 24.0078C2.60917 24.5156 2.17948 25.0755 1.82792 25.6875C1.73677 25.8307 1.60657 25.9251 1.43729 25.9707C1.26802 26.0162 1.11177 26 0.968544 25.9218C0.825315 25.8307 0.730914 25.7005 0.685341 25.5312C0.639768 25.3619 0.656044 25.2057 0.734169 25.0625C1.15084 24.3463 1.64888 23.6985 2.22831 23.1191C2.80774 22.5397 3.45552 22.0416 4.17167 21.625C4.88782 21.2213 5.64302 20.9121 6.43729 20.6972C7.23156 20.4824 8.03886 20.375 8.85917 20.375C9.67948 20.375 10.4868 20.4824 11.281 20.6972C12.0753 20.9121 12.8305 21.2213 13.5467 21.625C14.2628 22.0416 14.9106 22.5397 15.49 23.1191C16.0695 23.6985 16.5675 24.3463 16.9842 25.0625C17.0623 25.2057 17.0786 25.3619 17.033 25.5312C16.9874 25.7005 16.893 25.8307 16.7498 25.9218C16.6066 26 16.4503 26.0162 16.281 25.9707C16.1118 25.9251 15.9816 25.8307 15.8904 25.6875C15.5389 25.0755 15.1092 24.5156 14.6014 24.0078C14.0935 23.5 13.5336 23.0703 12.9217 22.7187C12.3097 22.3541 11.6586 22.0807 10.9685 21.8984C10.2784 21.7161 9.57531 21.625 8.85917 21.625Z" fill="black"/>
</g>
<defs>
<clipPath id="clip0_8360_23335">
<rect width="20" height="36" fill="white" transform="matrix(1 0 0 -1 0.660156 36.5)"/>
</clipPath>
</defs>
</svg>
