<svg width="49" height="49" viewBox="0 0 49 49" fill="none" xmlns="http://www.w3.org/2000/svg">
<rect x="1.39062" y="1.89014" width="46" height="46" rx="23" stroke="#EEEEEE" stroke-width="2"/>
<path d="M33.2106 25.1401C33.2106 29.9565 29.3083 33.8589 24.4919 33.8589C23.5778 33.8589 22.6989 33.7534 21.8903 33.4722C22.2419 32.9097 22.7692 31.9604 22.9802 31.187C23.0856 30.8003 23.5075 29.1128 23.5075 29.1128C23.7887 29.6753 24.6325 30.1323 25.5114 30.1323C28.1481 30.1323 30.0466 27.7065 30.0466 24.7183C30.0466 21.8354 27.6911 19.6558 24.6677 19.6558C20.9059 19.6558 18.902 22.187 18.902 24.9292C18.902 26.23 19.57 27.812 20.6598 28.3394C20.8356 28.4097 20.9411 28.3745 20.9762 28.1987C20.9762 28.0933 21.152 27.4956 21.2223 27.2144C21.2223 27.144 21.2223 27.0386 21.152 26.9683C20.8005 26.5464 20.5192 25.7378 20.5192 24.9644C20.5192 23.0659 21.9606 21.2026 24.4567 21.2026C26.5661 21.2026 28.0778 22.644 28.0778 24.7534C28.0778 27.1089 26.8825 28.7261 25.3356 28.7261C24.4919 28.7261 23.8591 28.0229 24.0348 27.1792C24.2809 26.1245 24.7731 24.9995 24.7731 24.2612C24.7731 23.5933 24.4216 23.0308 23.6833 23.0308C22.8044 23.0308 22.1012 23.9448 22.1012 25.1401C22.1012 25.9136 22.3473 26.4409 22.3473 26.4409C22.3473 26.4409 21.5036 30.0972 21.3278 30.7651C21.152 31.5386 21.2223 32.5933 21.2927 33.2612C18.0583 31.9956 15.7731 28.8667 15.7731 25.1401C15.7731 20.3237 19.6755 16.4214 24.4919 16.4214C29.3083 16.4214 33.2106 20.3237 33.2106 25.1401Z" fill="black"/>
</svg>
