<svg width="12" height="12" viewBox="0 0 12 12" fill="none" xmlns="http://www.w3.org/2000/svg">
<path d="M0 5.72998C0 5.60303 0.0463867 5.49316 0.13916 5.40039C0.231934 5.30762 0.341797 5.26123 0.46875 5.26123H10.7812C10.9082 5.26123 11.0181 5.30762 11.1108 5.40039C11.2036 5.49316 11.25 5.60303 11.25 5.72998C11.25 5.85693 11.2036 5.9668 11.1108 6.05957C11.0181 6.15234 10.9082 6.19873 10.7812 6.19873H0.46875C0.341797 6.19873 0.231934 6.15234 0.13916 6.05957C0.0463867 5.9668 0 5.85693 0 5.72998ZM5.625 0.10498C5.75195 0.10498 5.86182 0.151367 5.95459 0.244141C6.04736 0.336914 6.09375 0.446777 6.09375 0.57373V10.8862C6.09375 11.0132 6.04736 11.123 5.95459 11.2158C5.86182 11.3086 5.75195 11.355 5.625 11.355C5.49805 11.355 5.38818 11.3086 5.29541 11.2158C5.20264 11.123 5.15625 11.0132 5.15625 10.8862V0.57373C5.15625 0.446777 5.20264 0.336914 5.29541 0.244141C5.38818 0.151367 5.49805 0.10498 5.625 0.10498Z" fill="black"/>
</svg>
