<svg width="41" height="41" viewBox="0 0 41 41" fill="none" xmlns="http://www.w3.org/2000/svg">
<rect x="0.25" y="0.799805" width="40" height="40" rx="20" fill="#F4EEFA"/>
<g clip-path="url(#clip0_8360_23793)">
<path d="M24.5 18.2998C24.6693 18.2998 24.8288 18.2673 24.9785 18.2021C25.1283 18.137 25.2617 18.0459 25.3789 17.9287C25.4961 17.8115 25.5872 17.6781 25.6523 17.5283C25.7174 17.3786 25.75 17.2191 25.75 17.0498V14.5498C25.75 14.3805 25.7174 14.221 25.6523 14.0713C25.5872 13.9215 25.4961 13.7881 25.3789 13.6709C25.2617 13.5537 25.1283 13.4626 24.9785 13.3975C24.8288 13.3324 24.6693 13.2998 24.5 13.2998H22C21.8307 13.2998 21.6712 13.3324 21.5215 13.3975C21.3717 13.4626 21.2383 13.5537 21.1211 13.6709C21.0039 13.7881 20.9128 13.9215 20.8477 14.0713C20.7826 14.221 20.75 14.3805 20.75 14.5498V15.1748H15.75V14.5498C15.75 14.3805 15.7174 14.221 15.6523 14.0713C15.5872 13.9215 15.4961 13.7881 15.3789 13.6709C15.2617 13.5537 15.1283 13.4626 14.9785 13.3975C14.8288 13.3324 14.6693 13.2998 14.5 13.2998H12C11.8307 13.2998 11.6712 13.3324 11.5215 13.3975C11.3717 13.4626 11.2383 13.5537 11.1211 13.6709C11.0039 13.7881 10.9128 13.9215 10.8477 14.0713C10.7826 14.221 10.75 14.3805 10.75 14.5498V17.0498C10.75 17.2191 10.7826 17.3786 10.8477 17.5283C10.9128 17.6781 11.0039 17.8115 11.1211 17.9287C11.2383 18.0459 11.3717 18.137 11.5215 18.2021C11.6712 18.2673 11.8307 18.2998 12 18.2998H12.625V23.2998H12C11.8307 23.2998 11.6712 23.3324 11.5215 23.3975C11.3717 23.4626 11.2383 23.5537 11.1211 23.6709C11.0039 23.7881 10.9128 23.9215 10.8477 24.0713C10.7826 24.221 10.75 24.3805 10.75 24.5498V27.0498C10.75 27.2191 10.7826 27.3786 10.8477 27.5283C10.9128 27.6781 11.0039 27.8115 11.1211 27.9287C11.2383 28.0459 11.3717 28.137 11.5215 28.2021C11.6712 28.2673 11.8307 28.2998 12 28.2998H14.5C14.6693 28.2998 14.8288 28.2673 14.9785 28.2021C15.1283 28.137 15.2617 28.0459 15.3789 27.9287C15.4961 27.8115 15.5872 27.6781 15.6523 27.5283C15.7174 27.3786 15.75 27.2191 15.75 27.0498V26.4248H20.75V27.0498C20.75 27.2191 20.7826 27.3786 20.8477 27.5283C20.9128 27.6781 21.0039 27.8115 21.1211 27.9287C21.2383 28.0459 21.3717 28.137 21.5215 28.2021C21.6712 28.2673 21.8307 28.2998 22 28.2998H24.5C24.6693 28.2998 24.8288 28.2673 24.9785 28.2021C25.1283 28.137 25.2617 28.0459 25.3789 27.9287C25.4961 27.8115 25.5872 27.6781 25.6523 27.5283C25.7174 27.3786 25.75 27.2191 25.75 27.0498V24.5498C25.75 24.3805 25.7174 24.221 25.6523 24.0713C25.5872 23.9215 25.4961 23.7881 25.3789 23.6709C25.2617 23.5537 25.1283 23.4626 24.9785 23.3975C24.8288 23.3324 24.6693 23.2998 24.5 23.2998H23.875V18.2998H24.5ZM22.625 23.2998H22C21.8307 23.2998 21.6712 23.3324 21.5215 23.3975C21.3717 23.4626 21.2383 23.5537 21.1211 23.6709C21.0039 23.7881 20.9128 23.9215 20.8477 24.0713C20.7826 24.221 20.75 24.3805 20.75 24.5498V25.1748H15.75V24.5498C15.75 24.3805 15.7174 24.221 15.6523 24.0713C15.5872 23.9215 15.4961 23.7881 15.3789 23.6709C15.2617 23.5537 15.1283 23.4626 14.9785 23.3975C14.8288 23.3324 14.6693 23.2998 14.5 23.2998H13.875V18.2998H14.5C14.6693 18.2998 14.8288 18.2673 14.9785 18.2021C15.1283 18.137 15.2617 18.0459 15.3789 17.9287C15.4961 17.8115 15.5872 17.6781 15.6523 17.5283C15.7174 17.3786 15.75 17.2191 15.75 17.0498V16.4248H20.75V17.0498C20.75 17.2191 20.7826 17.3786 20.8477 17.5283C20.9128 17.6781 21.0039 17.8115 21.1211 17.9287C21.2383 18.0459 21.3717 18.137 21.5215 18.2021C21.6712 18.2673 21.8307 18.2998 22 18.2998H22.625V23.2998Z" fill="#B479D9"/>
</g>
<defs>
<clipPath id="clip0_8360_23793">
<rect width="20" height="20" fill="white" transform="matrix(1 0 0 -1 10.75 30.7998)"/>
</clipPath>
</defs>
</svg>
