<svg width="26" height="21" viewBox="0 0 26 21" fill="none" xmlns="http://www.w3.org/2000/svg">
<g clip-path="url(#clip0_8360_21014)">
<path d="M12.6562 3.625C11.8359 3.625 11.0677 3.78125 10.3516 4.09375C9.6224 4.40625 8.99089 4.82943 8.45703 5.36328C7.92318 5.89714 7.5 6.52865 7.1875 7.25781C6.875 7.97396 6.71875 8.74219 6.71875 9.5625C6.71875 10.3828 6.875 11.151 7.1875 11.8672C7.5 12.5964 7.92318 13.2279 8.45703 13.7617C8.99089 14.2956 9.6224 14.7188 10.3516 15.0312C11.0677 15.3438 11.8359 15.5 12.6562 15.5C13.4766 15.5 14.2448 15.3438 14.9609 15.0312C15.6901 14.7188 16.3216 14.2956 16.8555 13.7617C17.3893 13.2279 17.8125 12.5964 18.125 11.8672C18.4375 11.151 18.5938 10.3828 18.5938 9.5625C18.5938 8.74219 18.4375 7.97396 18.125 7.25781C17.8125 6.52865 17.3893 5.89714 16.8555 5.36328C16.3216 4.82943 15.6901 4.40625 14.9609 4.09375C14.2448 3.78125 13.4766 3.625 12.6562 3.625ZM5.46875 9.5625C5.46875 8.57292 5.65755 7.64193 6.03516 6.76953C6.41276 5.89714 6.92708 5.13542 7.57812 4.48438C8.22917 3.83333 8.99089 3.31901 9.86328 2.94141C10.7357 2.5638 11.6667 2.375 12.6562 2.375C13.6458 2.375 14.5768 2.5638 15.4492 2.94141C16.3216 3.31901 17.0833 3.83333 17.7344 4.48438C18.3854 5.13542 18.8997 5.89714 19.2773 6.76953C19.6549 7.64193 19.8438 8.57292 19.8438 9.5625C19.8438 10.5521 19.6549 11.4831 19.2773 12.3555C18.8997 13.2279 18.3854 13.9896 17.7344 14.6406C17.0833 15.2917 16.3216 15.806 15.4492 16.1836C14.5768 16.5612 13.6458 16.75 12.6562 16.75C11.6667 16.75 10.7357 16.5612 9.86328 16.1836C8.99089 15.806 8.22917 15.2917 7.57812 14.6406C6.92708 13.9896 6.41276 13.2279 6.03516 12.3555C5.65755 11.4831 5.46875 10.5521 5.46875 9.5625ZM16.8555 13.7617C16.9727 13.6445 17.1191 13.5859 17.2949 13.5859C17.4707 13.5859 17.6172 13.6445 17.7344 13.7617L21.543 17.5508C21.6602 17.681 21.7188 17.8307 21.7188 18C21.7188 18.1693 21.6602 18.319 21.543 18.4492C21.4128 18.5664 21.263 18.625 21.0938 18.625C20.9245 18.625 20.7747 18.5664 20.6445 18.4492L16.8555 14.6406C16.7383 14.5234 16.6797 14.377 16.6797 14.2012C16.6797 14.0254 16.7383 13.8789 16.8555 13.7617Z" fill="black"/>
</g>
<defs>
<clipPath id="clip0_8360_21014">
<rect width="20" height="20" fill="white" transform="matrix(1 0 0 -1 5.46875 20.5)"/>
</clipPath>
</defs>
</svg>
