<svg width="60" height="112" viewBox="0 0 60 112" fill="none" xmlns="http://www.w3.org/2000/svg">
<g clip-path="url(#clip0_8360_23754)">
<mask id="mask0_8360_23754" style="mask-type:luminance" maskUnits="userSpaceOnUse" x="0" y="5" width="60" height="61">
<path d="M60 5.18994H0V65.1899H60V5.18994Z" fill="white"/>
</mask>
<g mask="url(#mask0_8360_23754)">
<path d="M57.6247 18.4288L30.3823 5.2773C30.1408 5.16082 29.8596 5.16082 29.6181 5.2773L2.37567 18.4288C2.07192 18.5754 1.87891 18.883 1.87891 19.2203V51.1596C1.87891 51.4969 2.07192 51.8045 2.37567 51.9511L29.618 65.1026C29.7387 65.1609 29.8695 65.19 30.0001 65.19C30.1309 65.19 30.2615 65.1609 30.3823 65.1026L57.6247 51.9511C57.9284 51.8045 58.1214 51.4969 58.1214 51.1596V19.2204C58.1214 18.8829 57.9283 18.5755 57.6247 18.4288ZM30.0001 7.04484L55.2209 19.2203L47.9099 22.7498C47.8636 22.7145 47.8147 22.6819 47.7611 22.656L22.7117 10.5634L30.0001 7.04484ZM20.7268 11.5572L45.9109 23.7149L40.7528 26.205L15.5791 14.0522L20.7268 11.5572ZM46.5001 25.3822V34.5868L41.6821 36.9128V27.7082L46.5001 25.3822ZM56.3636 50.6081L30.8791 62.9107V32.9234L36.9579 29.9888C37.3951 29.7777 37.5783 29.2523 37.3673 28.8151C37.1562 28.3781 36.6308 28.1946 36.1936 28.4058L30.0001 31.3959L27.5631 30.2193C27.1259 30.008 26.6005 30.1915 26.3895 30.6286C26.1784 31.0657 26.3617 31.5912 26.7988 31.8022L29.1212 32.9234V62.9107L3.63673 50.6078V20.6205L23.043 29.9891C23.1661 30.0486 23.2963 30.0768 23.4244 30.0768C23.7511 30.0768 24.0649 29.8937 24.2165 29.5797C24.4275 29.1427 24.2443 28.6172 23.8071 28.4061L4.77942 19.2203L13.5104 15.0053L39.9121 27.7509C39.916 27.7563 39.9203 27.7611 39.9243 27.7664V38.3132C39.9243 38.6157 40.0798 38.8968 40.336 39.0577C40.4782 39.1469 40.6405 39.1921 40.8033 39.1921C40.9336 39.1921 41.0643 39.1631 41.1853 39.1047L47.7611 35.9301C48.0649 35.7836 48.2579 35.476 48.2579 35.1387V24.5338L56.3636 20.6206V50.6081Z" fill="#2EBB77"/>
<path d="M10.888 47.1993L6.89017 45.2694C6.45282 45.0581 5.92759 45.2416 5.71653 45.6787C5.50548 46.1158 5.68876 46.6413 6.12587 46.8523L10.1237 48.7823C10.2469 48.8419 10.3771 48.87 10.5051 48.87C10.8319 48.87 11.1457 48.6869 11.2972 48.373C11.5084 47.9358 11.3251 47.4105 10.888 47.1993Z" fill="#2EBB77"/>
<path d="M14.5696 44.8044L6.89791 41.1008C6.46068 40.8898 5.93533 41.073 5.72427 41.5103C5.51333 41.9474 5.69661 42.4728 6.13372 42.6838L13.8054 46.3875C13.9286 46.4469 14.0588 46.4752 14.1868 46.4752C14.5136 46.4752 14.8274 46.2921 14.9789 45.9781C15.1899 45.5408 15.0067 45.0154 14.5696 44.8044Z" fill="#2EBB77"/>
</g>
</g>
<defs>
<clipPath id="clip0_8360_23754">
<rect width="60" height="70" fill="white" transform="translate(0 0.189941)"/>
</clipPath>
</defs>
</svg>
