<svg width="59" height="51" viewBox="0 0 59 51" fill="none" xmlns="http://www.w3.org/2000/svg">
<rect x="0.0507812" y="2.5" width="48" height="48" rx="24" fill="#F5F5F5"/>
<g clip-path="url(#clip0_8360_21019)">
<path d="M16.4238 21.5H29.041C29.1973 21.5 29.347 21.526 29.4902 21.5781C29.6335 21.6302 29.7637 21.7083 29.8809 21.8125C29.998 21.9167 30.0924 22.0371 30.1641 22.1738C30.2357 22.3105 30.278 22.4505 30.291 22.5938C30.291 22.6068 30.291 22.6133 30.291 22.6133L31.4043 32.6133C31.4173 32.7044 31.4173 32.7923 31.4043 32.877C31.3913 32.9616 31.3717 33.043 31.3457 33.1211C31.3197 33.2122 31.2871 33.2936 31.248 33.3652C31.209 33.4368 31.1569 33.5052 31.0918 33.5703C31.0397 33.6484 30.9779 33.7135 30.9062 33.7656C30.8346 33.8177 30.7598 33.8568 30.6816 33.8828C30.5905 33.9219 30.5026 33.9512 30.418 33.9707C30.3333 33.9902 30.252 34 30.1738 34H15.291C15.2129 34 15.1315 33.9902 15.0469 33.9707C14.9622 33.9512 14.8743 33.9219 14.7832 33.8828C14.7051 33.8568 14.6302 33.8177 14.5586 33.7656C14.487 33.7135 14.4251 33.6484 14.373 33.5703C14.3079 33.5052 14.2559 33.4368 14.2168 33.3652C14.1777 33.2936 14.1452 33.2122 14.1191 33.1211C14.0931 33.043 14.0736 32.9616 14.0605 32.877C14.0475 32.7923 14.0475 32.7044 14.0605 32.6133L15.1738 22.6133C15.1738 22.6133 15.1738 22.6068 15.1738 22.5938C15.1868 22.4505 15.2292 22.3105 15.3008 22.1738C15.3724 22.0371 15.4668 21.9167 15.584 21.8125C15.7012 21.7083 15.8314 21.6302 15.9746 21.5781C16.1178 21.526 16.2676 21.5 16.4238 21.5ZM29.041 22.75H16.4238L15.3105 32.75H30.1543L29.041 22.75ZM22.7324 19.625C22.4069 19.625 22.0879 19.6868 21.7754 19.8105C21.4629 19.9342 21.1895 20.1133 20.9551 20.3477C20.7207 20.582 20.5417 20.8555 20.418 21.168C20.2943 21.4805 20.2324 21.7995 20.2324 22.125V24.625C20.2324 24.7943 20.1706 24.9408 20.0469 25.0645C19.9232 25.1882 19.7767 25.25 19.6074 25.25C19.4382 25.25 19.2917 25.1882 19.168 25.0645C19.0443 24.9408 18.9824 24.7943 18.9824 24.625V22.125C18.9824 21.6302 19.0768 21.1517 19.2656 20.6895C19.4544 20.2272 19.7246 19.8203 20.0762 19.4688C20.4277 19.1172 20.8346 18.847 21.2969 18.6582C21.7591 18.4694 22.2376 18.375 22.7324 18.375C23.2272 18.375 23.7057 18.4694 24.168 18.6582C24.6302 18.847 25.0371 19.1172 25.3887 19.4688C25.7402 19.8203 26.0104 20.2272 26.1992 20.6895C26.388 21.1517 26.4824 21.6302 26.4824 22.125V24.625C26.4824 24.7943 26.4206 24.9408 26.2969 25.0645C26.1732 25.1882 26.0267 25.25 25.8574 25.25C25.6882 25.25 25.5417 25.1882 25.418 25.0645C25.2943 24.9408 25.2324 24.7943 25.2324 24.625V22.125C25.2324 21.7995 25.1706 21.4805 25.0469 21.168C24.9232 20.8555 24.7441 20.582 24.5098 20.3477C24.2754 20.1133 24.002 19.9342 23.6895 19.8105C23.377 19.6868 23.0579 19.625 22.7324 19.625Z" fill="black"/>
</g>
<rect x="40.0508" y="0.5" width="18" height="18" rx="9" fill="#2EBB77"/>
<path d="M49.2519 13.644C48.5399 13.644 47.9159 13.452 47.3799 13.068C46.8519 12.676 46.4399 12.136 46.1439 11.448C45.8479 10.752 45.6999 9.944 45.6999 9.024C45.6999 8.104 45.8479 7.3 46.1439 6.612C46.4399 5.916 46.8519 5.376 47.3799 4.992C47.9079 4.608 48.5279 4.416 49.2399 4.416C49.9519 4.416 50.5719 4.608 51.0999 4.992C51.6279 5.376 52.0399 5.916 52.3359 6.612C52.6399 7.3 52.7919 8.104 52.7919 9.024C52.7919 9.944 52.6439 10.752 52.3479 11.448C52.0519 12.144 51.6359 12.684 51.0999 13.068C50.5719 13.452 49.9559 13.644 49.2519 13.644ZM49.2519 12.552C49.7319 12.552 50.1479 12.408 50.4999 12.12C50.8519 11.824 51.1239 11.412 51.3159 10.884C51.5159 10.356 51.6159 9.736 51.6159 9.024C51.6159 8.312 51.5159 7.692 51.3159 7.164C51.1239 6.636 50.8479 6.228 50.4879 5.94C50.1359 5.652 49.7199 5.508 49.2399 5.508C48.7599 5.508 48.3439 5.652 47.9919 5.94C47.6399 6.228 47.3639 6.636 47.1639 7.164C46.9719 7.692 46.8759 8.312 46.8759 9.024C46.8759 9.728 46.9719 10.344 47.1639 10.872C47.3639 11.4 47.6399 11.812 47.9919 12.108C48.3519 12.404 48.7719 12.552 49.2519 12.552Z" fill="white"/>
<defs>
<clipPath id="clip0_8360_21019">
<rect width="20" height="20" fill="white" transform="matrix(1 0 0 -1 14.0508 36.5)"/>
</clipPath>
</defs>
</svg>
