<svg width="21" height="21" viewBox="0 0 21 21" fill="none" xmlns="http://www.w3.org/2000/svg">
<g clip-path="url(#clip0_8360_21020)">
<path d="M2.42383 5.5H15.041C15.1973 5.5 15.347 5.52604 15.4902 5.57812C15.6335 5.63021 15.7637 5.70833 15.8809 5.8125C15.998 5.91667 16.0924 6.03711 16.1641 6.17383C16.2357 6.31055 16.278 6.45052 16.291 6.59375C16.291 6.60677 16.291 6.61328 16.291 6.61328L17.4043 16.6133C17.4173 16.7044 17.4173 16.7923 17.4043 16.877C17.3913 16.9616 17.3717 17.043 17.3457 17.1211C17.3197 17.2122 17.2871 17.2936 17.248 17.3652C17.209 17.4368 17.1569 17.5052 17.0918 17.5703C17.0397 17.6484 16.9779 17.7135 16.9062 17.7656C16.8346 17.8177 16.7598 17.8568 16.6816 17.8828C16.5905 17.9219 16.5026 17.9512 16.418 17.9707C16.3333 17.9902 16.252 18 16.1738 18H1.29102C1.21289 18 1.13151 17.9902 1.04688 17.9707C0.96224 17.9512 0.874349 17.9219 0.783203 17.8828C0.705078 17.8568 0.630208 17.8177 0.558594 17.7656C0.486979 17.7135 0.42513 17.6484 0.373047 17.5703C0.307943 17.5052 0.255859 17.4368 0.216797 17.3652C0.177734 17.2936 0.145182 17.2122 0.119141 17.1211C0.093099 17.043 0.0735677 16.9616 0.0605469 16.877C0.047526 16.7923 0.047526 16.7044 0.0605469 16.6133L1.17383 6.61328C1.17383 6.61328 1.17383 6.60677 1.17383 6.59375C1.18685 6.45052 1.22917 6.31055 1.30078 6.17383C1.3724 6.03711 1.4668 5.91667 1.58398 5.8125C1.70117 5.70833 1.83138 5.63021 1.97461 5.57812C2.11784 5.52604 2.26758 5.5 2.42383 5.5ZM15.041 6.75H2.42383L1.31055 16.75H16.1543L15.041 6.75ZM8.73242 3.625C8.4069 3.625 8.08789 3.68685 7.77539 3.81055C7.46289 3.93425 7.18945 4.11328 6.95508 4.34766C6.7207 4.58203 6.54167 4.85547 6.41797 5.16797C6.29427 5.48047 6.23242 5.79948 6.23242 6.125V8.625C6.23242 8.79427 6.17057 8.94075 6.04688 9.06445C5.92318 9.18815 5.77669 9.25 5.60742 9.25C5.43815 9.25 5.29167 9.18815 5.16797 9.06445C5.04427 8.94075 4.98242 8.79427 4.98242 8.625V6.125C4.98242 5.63021 5.07682 5.15169 5.26562 4.68945C5.45443 4.22721 5.72461 3.82031 6.07617 3.46875C6.42773 3.11719 6.83464 2.847 7.29688 2.6582C7.75911 2.4694 8.23763 2.375 8.73242 2.375C9.22721 2.375 9.70573 2.4694 10.168 2.6582C10.6302 2.847 11.0371 3.11719 11.3887 3.46875C11.7402 3.82031 12.0104 4.22721 12.1992 4.68945C12.388 5.15169 12.4824 5.63021 12.4824 6.125V8.625C12.4824 8.79427 12.4206 8.94075 12.2969 9.06445C12.1732 9.18815 12.0267 9.25 11.8574 9.25C11.6882 9.25 11.5417 9.18815 11.418 9.06445C11.2943 8.94075 11.2324 8.79427 11.2324 8.625V6.125C11.2324 5.79948 11.1706 5.48047 11.0469 5.16797C10.9232 4.85547 10.7441 4.58203 10.5098 4.34766C10.2754 4.11328 10.002 3.93425 9.68945 3.81055C9.37695 3.68685 9.05794 3.625 8.73242 3.625Z" fill="black"/>
</g>
<defs>
<clipPath id="clip0_8360_21020">
<rect width="20" height="20" fill="white" transform="matrix(1 0 0 -1 0.0507812 20.5)"/>
</clipPath>
</defs>
</svg>
