<svg width="17" height="17" viewBox="0 0 17 17" fill="none" xmlns="http://www.w3.org/2000/svg">
<path d="M10.6508 6.57422C12.4086 8.33203 12.3793 11.1445 10.6508 12.8438C10.6508 12.873 10.6508 12.873 10.6508 12.873L8.68789 14.8359C6.95938 16.5645 4.11758 16.5645 2.38906 14.8359C0.660547 13.1074 0.660547 10.2656 2.38906 8.53711L3.47305 7.45312C3.76602 7.16016 4.26406 7.36523 4.26406 7.77539C4.29336 8.27344 4.38125 8.80078 4.55703 9.29883C4.61563 9.47461 4.58633 9.67969 4.43984 9.79688L4.05898 10.1777C3.23867 10.998 3.20938 12.3457 4.02969 13.166C4.85 14.0156 6.19766 14.0156 7.01797 13.166L9.01016 11.2031C9.83047 10.3828 9.83047 9.06445 9.01016 8.21484C8.89297 8.12695 8.77578 8.03906 8.68789 7.98047C8.5707 7.89258 8.48281 7.77539 8.48281 7.59961C8.48281 7.30664 8.6 6.98438 8.83438 6.7207L9.44961 6.10547C9.62539 5.95898 9.85977 5.92969 10.0648 6.07617C10.2699 6.22266 10.475 6.39844 10.6508 6.57422ZM14.7816 2.44336C16.5102 4.17188 16.5102 7.01367 14.7816 8.74219L13.6977 9.82617C13.4047 10.1191 12.9066 9.91406 12.9066 9.50391C12.8773 9.00586 12.7895 8.47852 12.6137 7.98047C12.5551 7.80469 12.5844 7.59961 12.7309 7.48242L13.1117 7.10156C13.932 6.28125 13.9613 4.93359 13.141 4.11328C12.3207 3.26367 10.973 3.26367 10.1527 4.11328L8.16055 6.07617C7.34023 6.89648 7.34023 8.21484 8.16055 9.06445C8.27773 9.15234 8.39492 9.24023 8.48281 9.29883C8.6 9.38672 8.68789 9.50391 8.68789 9.67969C8.68789 9.97266 8.5707 10.2949 8.33633 10.5586L7.72109 11.1738C7.54531 11.3203 7.31094 11.3496 7.10586 11.2031C6.90078 11.0566 6.6957 10.8809 6.51992 10.7051C4.76211 8.94727 4.79141 6.13477 6.51992 4.43555C6.51992 4.40625 6.51992 4.40625 6.51992 4.40625L8.48281 2.44336C10.2113 0.714844 13.0531 0.714844 14.7816 2.44336Z" fill="white"/>
</svg>
