<svg width="60" height="112" viewBox="0 0 60 112" fill="none" xmlns="http://www.w3.org/2000/svg">
<g clip-path="url(#clip0_8360_23730)">
<mask id="mask0_8360_23730" style="mask-type:luminance" maskUnits="userSpaceOnUse" x="0" y="5" width="60" height="61">
<path d="M60 5.18994H0V65.1899H60V5.18994Z" fill="white"/>
</mask>
<g mask="url(#mask0_8360_23730)">
<path d="M55.9073 43.5246C56.1423 42.9729 56.0201 42.3426 55.5962 41.9185L49.2837 35.606C48.9412 35.2636 48.386 35.2636 48.0435 35.606C47.7011 35.9485 47.7011 36.5037 48.0435 36.8461L53.8425 42.6452L44.6007 42.4604C43.9821 42.4474 43.3795 42.6912 42.9429 43.1276L27.1371 58.9336C27.0231 59.0476 26.8376 59.0475 26.7237 58.9336L14.7231 46.9329L15.6789 45.1083C15.7622 44.9495 15.89 44.8216 16.0488 44.7385L24.5854 40.2661C25.1025 39.9951 25.4016 39.4648 25.3658 38.882C25.33 38.2993 24.9684 37.8095 24.422 37.6039L16.5694 34.6479L31.0007 20.2167C31.1146 20.1027 31.3001 20.1028 31.414 20.2167L33.4299 22.2325V28.137C32.0708 28.5203 31.0714 29.7705 31.0714 31.2506C31.0714 33.0347 32.5227 34.4861 34.3068 34.4861C36.0909 34.4861 37.5423 33.0347 37.5423 31.2506C37.5423 29.7705 36.5429 28.5203 35.1837 28.137V23.9862L45.2158 34.0181C45.5583 34.3605 46.1135 34.3605 46.4559 34.0181C46.7983 33.6758 46.7983 33.1205 46.4559 32.7781L35.1838 21.506V17.3395C35.1838 13.0756 31.715 9.60669 27.4511 9.60669C23.1873 9.60669 19.7184 13.0756 19.7184 17.3395V29.0192L14.7681 33.9696L1.97854 29.1553C1.43468 28.9506 0.841359 29.0787 0.430383 29.4895C0.0194059 29.9006 -0.108797 30.4939 0.0959296 31.0378L2.16523 36.5348C2.33585 36.9881 2.84187 37.2172 3.2948 37.0466C3.74808 36.876 3.97718 36.3704 3.80655 35.917L1.96461 31.0238L23.1939 39.0152L15.235 43.1849C14.7589 43.4342 14.3753 43.8178 14.1256 44.2943L9.95597 52.2532L5.18738 39.5855C5.01675 39.1322 4.51097 38.9032 4.05781 39.0737C3.60464 39.2443 3.37542 39.75 3.54604 40.2033L8.54433 53.4815C8.74997 54.0279 9.23974 54.3895 9.82251 54.4253C10.398 54.4626 10.9371 54.1628 11.2066 53.6448L13.8703 48.5604L25.4835 60.1737C25.8699 60.5601 26.3838 60.7729 26.9303 60.7729C27.4768 60.7729 27.9907 60.5601 28.377 60.1737L44.1831 44.3677C44.2839 44.267 44.4218 44.2118 44.5657 44.2136L54.5335 44.4131C55.1354 44.4222 55.6722 44.0762 55.9073 43.5246ZM35.7885 31.2506C35.7885 32.0677 35.1237 32.7324 34.3067 32.7324C33.4897 32.7324 32.825 32.0677 32.825 31.2506C32.825 30.7611 33.0646 30.3277 33.4316 30.0577C33.4499 30.5258 33.8341 30.8999 34.3067 30.8999C34.7793 30.8999 35.1635 30.5258 35.1819 30.0577C35.5489 30.3277 35.7885 30.7611 35.7885 31.2506ZM21.4718 17.3396C21.4718 14.0427 24.1539 11.3605 27.4508 11.3605C30.7476 11.3605 33.4298 14.0427 33.4298 17.3396V19.7524L32.6541 18.9767C31.8563 18.1789 30.5583 18.1789 29.7605 18.9767L21.4716 27.2655L21.4718 17.3396Z" fill="#2EBB77"/>
<path d="M55.7168 46.3203C55.4693 45.9978 55.0943 45.8127 54.688 45.8127C54.2817 45.8127 53.9066 45.9978 53.6591 46.3204C52.0591 48.4059 49.375 52.2303 49.375 54.4119C49.375 57.3414 51.7584 59.7249 54.6879 59.7249C57.6175 59.7249 60.001 57.3414 60.001 54.4119C60.001 52.2303 57.3169 48.4059 55.7168 46.3203ZM54.688 57.9711C52.7255 57.9711 51.1288 56.3744 51.1288 54.4118C51.1288 53.3103 52.5133 50.7738 54.688 47.8662C56.8629 50.7738 58.2473 53.3103 58.2473 54.4118C58.2473 56.3744 56.6506 57.9711 54.688 57.9711Z" fill="#2EBB77"/>
</g>
</g>
<defs>
<clipPath id="clip0_8360_23730">
<rect width="60" height="70" fill="white" transform="translate(0 0.189941)"/>
</clipPath>
</defs>
</svg>
