<svg width="49" height="49" viewBox="0 0 49 49" fill="none" xmlns="http://www.w3.org/2000/svg">
<rect x="1.17188" y="1.89014" width="46" height="46" rx="23" stroke="#EEEEEE" stroke-width="2"/>
<path d="M31.4086 21.4839C31.4086 21.6597 31.4086 21.8003 31.4086 21.9761C31.4086 26.8628 27.7172 32.4526 20.932 32.4526C18.8227 32.4526 16.8891 31.855 15.2719 30.8003C15.5531 30.8354 15.8344 30.8706 16.1508 30.8706C17.8734 30.8706 19.4555 30.2729 20.7211 29.2886C19.1039 29.2534 17.7328 28.1987 17.2758 26.7222C17.5219 26.7573 17.7328 26.7925 17.9789 26.7925C18.2953 26.7925 18.6469 26.7222 18.9281 26.6519C17.2406 26.3003 15.975 24.8237 15.975 23.0308V22.9956C16.4672 23.2769 17.0648 23.4175 17.6625 23.4526C16.643 22.7847 16.0102 21.6597 16.0102 20.394C16.0102 19.6909 16.1859 19.0581 16.5023 18.5308C18.3305 20.7456 21.0727 22.2222 24.1313 22.3979C24.0609 22.1167 24.0258 21.8354 24.0258 21.5542C24.0258 19.5151 25.6781 17.8628 27.7172 17.8628C28.7719 17.8628 29.7211 18.2847 30.4242 19.0229C31.2328 18.8472 32.0414 18.5308 32.7445 18.1089C32.4633 18.9878 31.9008 19.6909 31.1273 20.1479C31.8656 20.0776 32.6039 19.8667 33.2367 19.5854C32.7445 20.3237 32.1117 20.9565 31.4086 21.4839Z" fill="black"/>
</svg>
