<svg width="45" height="33" viewBox="0 0 45 33" fill="none" xmlns="http://www.w3.org/2000/svg">
<path d="M9.32788 17.2639C10.432 17.2639 11.4789 17.0764 12.4684 16.7014C13.458 16.3264 14.3486 15.7847 15.1402 15.0764C14.6611 16.5764 14.0465 18.0138 13.2965 19.3888C12.5674 20.7846 11.6924 22.1439 10.6716 23.4668C9.65079 24.7897 8.49457 26.0969 7.20294 27.3886C5.91131 28.701 4.47385 30.0343 2.89057 31.3885L3.67179 32.1697C5.88006 30.3781 7.85917 28.5552 9.60912 26.7011C11.3382 24.847 12.8122 22.9408 14.0309 20.9825C15.2496 19.0242 16.1818 17.0243 16.8277 14.9827C17.4735 12.9411 17.7964 10.8578 17.7964 8.73285C17.7964 7.54539 17.5776 6.43084 17.1402 5.3892C16.7027 4.34756 16.0985 3.44134 15.3277 2.67053C14.5569 1.89972 13.6611 1.28515 12.6403 0.826834C11.6195 0.389347 10.5153 0.170603 9.32788 0.170603C8.16125 0.170603 7.05711 0.389347 6.01548 0.826834C4.99467 1.28515 4.09886 1.89972 3.32805 2.67053C2.55724 3.44134 1.95309 4.34756 1.51561 5.3892C1.07812 6.43084 0.859375 7.54539 0.859375 8.73285C0.859375 9.92032 1.07812 11.0349 1.51561 12.0765C1.95309 13.1181 2.55724 14.0244 3.32805 14.7952C4.09886 15.566 4.99467 16.1701 6.01548 16.6076C7.05711 17.0451 8.16125 17.2639 9.32788 17.2639ZM35.6709 17.2639C36.775 17.2639 37.8166 17.0764 38.7958 16.7014C39.7749 16.3264 40.6186 15.7847 41.327 15.0764C40.8895 16.5764 40.3166 18.0138 39.6083 19.3888C38.8791 20.7846 38.0093 22.1439 36.999 23.4668C35.9886 24.7897 34.8376 26.0969 33.5459 27.3886C32.2543 28.701 30.8273 30.0343 29.2648 31.3885L30.046 32.1697C32.2335 30.3781 34.2022 28.5552 35.9521 26.7011C37.7021 24.847 39.1812 22.9408 40.3895 20.9825C41.5978 19.0242 42.5248 17.0243 43.1707 14.9827C43.8165 12.9411 44.1394 10.8578 44.1394 8.73285C44.1394 7.54539 43.9206 6.43084 43.4831 5.3892C43.0457 4.34756 42.4467 3.44134 41.6863 2.67053C40.9259 1.89972 40.0249 1.28515 38.9833 0.826834C37.9625 0.389347 36.8583 0.170603 35.6709 0.170603C34.5042 0.170603 33.4001 0.389347 32.3585 0.826834C31.3377 1.28515 30.4471 1.89972 29.6867 2.67053C28.9263 3.44134 28.3169 4.34756 27.8586 5.3892C27.4211 6.43084 27.2024 7.54539 27.2024 8.73285C27.2024 9.92032 27.4211 11.0349 27.8586 12.0765C28.3169 13.1181 28.9263 14.0244 29.6867 14.7952C30.4471 15.566 31.3377 16.1701 32.3585 16.6076C33.4001 17.0451 34.5042 17.2639 35.6709 17.2639Z" fill="#2EBB77"/>
</svg>
